<?xml version="1.0" standalone="no"?>
<!DOCTYPE svg PUBLIC "-//W3C//DTD SVG 20010904//EN"
 "http://www.w3.org/TR/2001/REC-SVG-20010904/DTD/svg10.dtd">
<svg version="1.0" xmlns="http://www.w3.org/2000/svg"
 width="1024.000000pt" height="1024.000000pt" viewBox="0 0 1024.000000 1024.000000"
 preserveAspectRatio="xMidYMid meet">

<g transform="translate(0.000000,1024.000000) scale(0.100000,-0.100000)"
fill="#000000" stroke="none">
<path d="M5564 8699 c19 -15 24 -25 17 -33 -7 -9 -6 -19 4 -33 14 -20 13 -22
-5 -28 -18 -6 -19 -8 -4 -30 22 -33 9 -79 -20 -71 -64 19 -79 19 -73 3 4 -12
-3 -17 -36 -22 -40 -7 -41 -8 -16 -20 13 -7 38 -11 54 -7 26 4 27 6 10 13 -15
5 -8 8 23 8 47 1 50 -3 23 -39 -19 -23 -62 -39 -166 -59 -22 -4 -56 -17 -75
-29 -39 -24 -76 -29 -82 -10 -3 9 -9 8 -21 -4 -10 -9 -26 -20 -37 -23 -23 -7
-26 -21 -7 -28 12 -4 -80 -27 -108 -27 -8 0 -15 -6 -15 -12 0 -7 -11 -23 -25
-36 -13 -13 -23 -29 -22 -35 1 -6 -6 -13 -16 -15 -22 -4 -47 -24 -95 -70 -30
-31 -62 -37 -62 -13 0 5 -16 12 -35 15 -37 7 -65 -8 -57 -32 3 -11 -20 -16
-65 -15 -6 0 -9 -6 -6 -13 3 -8 10 -14 15 -14 6 0 18 -8 27 -17 19 -20 46 -39
78 -53 14 -6 20 -15 17 -24 -3 -9 5 -18 23 -24 l28 -10 -37 -1 c-41 -1 -56
-15 -39 -35 16 -19 71 -28 88 -15 7 7 16 9 19 6 3 -3 -4 -10 -15 -16 -22 -12
-60 -8 -124 14 -32 11 -43 11 -49 2 -14 -22 -2 -32 63 -48 59 -16 62 -17 34
-24 -57 -13 -65 -16 -65 -25 0 -15 40 -22 55 -10 16 13 45 7 45 -10 0 -5 -7
-10 -15 -10 -8 0 -19 -9 -25 -20 -6 -11 -8 -20 -4 -20 4 0 -1 -9 -11 -20 -10
-11 -22 -17 -28 -13 -6 3 -7 1 -3 -6 10 -15 -32 -53 -53 -49 -9 2 -20 13 -26
26 -5 12 -15 22 -22 22 -7 0 -13 5 -13 10 0 18 -39 10 -50 -10 -7 -13 -21 -20
-40 -20 -16 0 -32 -4 -35 -10 -3 -5 -14 -9 -23 -9 -15 1 -15 2 1 6 20 5 22 14
5 32 -11 11 -10 13 2 9 19 -6 72 52 65 71 -3 8 4 23 15 33 13 12 18 26 15 41
-3 12 -6 33 -7 47 -1 14 -6 31 -11 38 -6 8 -5 12 4 12 19 0 -2 17 -31 24 -24
7 -24 6 -6 -8 17 -14 17 -16 2 -31 -9 -9 -16 -23 -16 -31 0 -8 -4 -12 -10 -9
-5 3 -10 2 -10 -3 0 -17 30 -22 36 -7 4 8 12 15 20 15 18 0 18 -5 -3 -36 -12
-18 -18 -22 -24 -13 -6 11 -13 10 -33 0 -14 -8 -23 -18 -19 -24 3 -5 0 -7 -8
-5 -23 8 -13 99 17 160 13 24 12 28 -7 41 -17 12 -19 19 -10 35 6 12 20 24 31
27 11 3 20 11 20 16 0 13 -18 11 -23 -3 -3 -7 -6 -3 -6 10 -1 12 -5 22 -10 22
-5 0 -17 3 -27 7 -14 5 -16 2 -11 -16 10 -39 -30 -111 -61 -111 -31 0 -48 -94
-21 -111 12 -7 11 -11 -3 -25 -23 -24 -37 -9 -32 34 2 20 1 30 -3 22 -3 -8
-13 -20 -21 -26 -11 -8 -13 -21 -8 -47 4 -24 3 -37 -4 -37 -5 0 -10 7 -10 15
0 20 -16 19 -24 -1 -3 -8 -2 -13 3 -10 5 3 12 -1 15 -10 8 -22 8 -26 -4 -19
-6 3 -13 -2 -17 -12 -6 -18 -48 -78 -68 -98 -24 -25 -73 -54 -80 -47 -5 4 -5
2 -1 -5 4 -7 -4 -18 -21 -27 -24 -12 -25 -16 -11 -21 9 -4 33 -2 53 5 28 9 39
9 51 -1 8 -7 31 -12 50 -11 20 1 32 -3 29 -8 -4 -6 6 -10 22 -10 l28 0 -25
-20 c-20 -16 -26 -16 -28 -5 -5 22 -20 18 -24 -7 -3 -24 -11 -26 -130 -31 -47
-1 -80 2 -83 8 -3 5 -2 0 1 -12 4 -17 1 -23 -13 -24 -11 0 -13 -3 -5 -6 7 -3
19 1 27 7 12 10 15 9 15 -4 0 -8 -11 -18 -25 -22 -33 -8 -22 -24 17 -24 19 0
41 9 55 22 18 16 26 19 35 10 24 -24 -71 -47 -185 -43 -24 1 -27 4 -21 25 4
19 1 25 -20 30 -14 3 -26 10 -26 14 0 4 30 24 65 46 36 21 65 43 65 48 0 6 7
7 16 4 8 -3 12 -2 9 4 -3 5 10 24 29 41 40 34 47 54 17 44 -12 -3 -23 0 -28 8
-13 22 -51 27 -59 8 -4 -9 -7 -19 -6 -23 1 -4 -4 -5 -12 -2 -9 3 -13 -1 -13
-12 1 -9 -4 -19 -10 -21 -7 -3 -13 2 -13 11 0 9 -8 16 -17 16 -14 0 -15 2 -4
9 18 12 5 16 -48 16 -30 0 -46 -5 -49 -15 -5 -13 -3 -13 11 -1 13 10 20 11 30
2 8 -6 17 -8 20 -4 4 3 7 1 7 -5 0 -6 -9 -14 -20 -17 -11 -3 -20 -12 -20 -19
0 -7 -12 -17 -27 -23 l-28 -10 28 -8 c15 -4 27 -13 27 -21 0 -17 -2 -17 -35
-2 -14 6 -25 16 -25 21 0 5 -8 16 -17 23 -21 15 -16 22 18 27 17 3 23 10 21
23 -2 11 -3 29 -3 40 0 17 -8 23 -42 30 -48 9 -54 9 -82 -1 -13 -4 -11 -1 5 8
l25 15 -29 8 c-15 3 -31 3 -35 -2 -3 -5 -23 -18 -44 -28 -21 -11 -52 -35 -70
-53 -18 -18 -51 -45 -74 -58 -23 -14 -52 -39 -64 -57 -22 -31 -12 -31 24 0 9
8 17 12 17 7 0 -4 -17 -23 -37 -41 -34 -29 -36 -33 -16 -34 12 0 43 9 70 21
26 12 76 29 110 39 50 15 65 16 79 6 10 -8 14 -18 9 -25 -4 -8 1 -18 14 -27
12 -8 21 -22 21 -30 0 -8 5 -14 10 -14 6 0 10 -5 10 -11 0 -7 -13 -9 -37 -5
-63 11 -72 16 -66 32 4 12 0 14 -23 8 -52 -12 -64 -23 -64 -56 0 -25 3 -29 12
-20 15 15 48 16 48 2 0 -6 -7 -13 -15 -16 -9 -4 -15 -19 -15 -40 0 -29 -3 -34
-24 -34 -31 0 -56 -10 -56 -21 0 -5 10 -9 23 -9 21 0 21 -1 -8 -26 -16 -14
-37 -23 -46 -21 -12 3 -16 0 -12 -9 3 -8 -1 -14 -10 -14 -8 0 -18 -7 -21 -16
-3 -8 -11 -12 -17 -9 -7 5 -4 14 7 26 27 30 6 43 -44 26 -41 -14 -41 -14 -30
7 10 19 8 18 -17 -4 -21 -20 -23 -26 -11 -28 21 -4 21 -22 0 -22 -11 0 -14 -5
-10 -16 3 -9 6 -29 6 -45 0 -29 1 -29 55 -29 30 0 55 -4 55 -10 0 -5 -7 -10
-15 -10 -12 0 -35 -55 -35 -86 0 -6 -9 -19 -20 -29 -12 -10 -18 -25 -16 -32 3
-7 1 -15 -4 -18 -16 -10 -11 -32 14 -62 l24 -28 73 39 c71 38 73 38 56 13 -29
-44 -19 -43 24 2 25 26 47 40 56 37 11 -4 13 -1 8 14 -5 16 -2 20 14 20 14 0
21 -6 21 -19 0 -32 15 -32 45 -1 21 22 31 27 37 18 6 -10 8 -10 8 0 0 7 5 10
10 7 7 -4 7 -13 0 -26 -9 -15 -7 -19 5 -19 17 0 19 -9 5 -30 -7 -12 -12 -12
-22 -2 -20 20 -24 15 -38 -41 -9 -41 -19 -57 -42 -70 -16 -9 -34 -15 -39 -11
-14 8 -11 40 6 54 51 42 -27 51 -85 10 -20 -15 -34 -19 -39 -12 -9 16 -37 -9
-38 -35 -1 -15 5 -23 20 -25 15 -2 21 -9 19 -22 -2 -10 2 -22 9 -26 8 -6 6
-14 -10 -31 -28 -31 -27 -36 11 -34 28 2 29 1 13 -12 -13 -9 -16 -16 -9 -23 8
-8 15 -6 24 5 13 16 30 20 30 7 0 -15 -52 -62 -62 -56 -6 4 -14 1 -18 -6 -5
-9 -28 -13 -65 -11 -36 1 -54 -2 -50 -9 3 -6 0 -7 -9 -4 -9 3 -16 1 -16 -5 0
-6 6 -11 12 -11 7 0 2 -7 -10 -16 -19 -13 -21 -18 -10 -32 10 -12 10 -14 1 -8
-9 4 -13 1 -13 -9 0 -10 5 -15 13 -12 46 19 52 20 40 6 -15 -15 -17 -69 -3
-69 5 0 29 13 52 30 38 26 47 29 81 21 49 -12 95 -6 117 14 9 8 22 15 28 15 7
0 12 4 12 9 0 13 -37 2 -51 -15 -13 -16 -109 -20 -109 -5 0 5 -8 12 -17 14
-12 3 -9 5 8 6 15 0 29 7 32 15 4 9 19 14 39 14 18 -1 27 -3 21 -5 -7 -3 -13
-12 -13 -20 0 -13 -3 -13 -15 -3 -9 8 -15 9 -15 2 0 -22 23 -24 61 -6 21 11
39 25 39 32 0 6 6 12 14 12 8 0 22 3 30 6 12 5 15 2 10 -10 -3 -9 -3 -16 2
-16 17 0 74 25 74 32 0 4 9 8 19 8 11 0 33 11 49 25 17 14 38 25 48 25 11 0
33 14 51 30 21 20 42 30 62 30 20 0 31 5 31 14 0 8 9 18 20 21 11 3 20 10 20
14 0 4 12 6 28 3 19 -2 33 3 46 17 22 24 45 29 26 6 -10 -12 -9 -15 6 -15 15
-1 12 -4 -9 -16 -16 -9 -35 -13 -44 -10 -16 7 -57 -17 -46 -27 3 -4 1 -7 -5
-7 -7 0 -12 5 -12 10 0 6 -4 10 -9 10 -12 0 -22 -44 -11 -48 14 -5 13 -32 -1
-32 -6 0 -28 -18 -50 -40 -36 -37 -83 -60 -95 -47 -9 9 41 52 61 52 11 0 21 8
23 17 3 13 -4 16 -32 15 -20 -1 -36 -5 -36 -9 0 -4 -9 -9 -19 -13 -11 -3 -18
-12 -15 -19 3 -7 -2 -19 -11 -26 -20 -16 -19 -38 1 -42 35 -7 -68 -52 -129
-57 -5 -1 -6 -5 -3 -9 11 -18 -25 -52 -55 -52 -16 0 -29 -4 -29 -9 0 -10 -35
-25 -60 -26 -9 0 -14 -8 -12 -21 2 -16 -7 -26 -35 -39 -20 -10 -51 -31 -67
-46 -17 -15 -33 -26 -36 -23 -2 3 20 29 50 58 44 42 53 56 43 65 -10 9 -19 6
-39 -14 -14 -14 -40 -32 -57 -40 -18 -9 -24 -13 -14 -10 9 2 17 0 17 -5 0 -6
-4 -10 -10 -10 -5 0 -10 -6 -10 -14 0 -8 -9 -18 -20 -21 -11 -3 -25 -15 -31
-26 -5 -11 -14 -17 -20 -14 -5 4 -8 1 -7 -6 2 -7 -8 -18 -22 -25 -29 -15 -52
-43 -44 -55 2 -4 -14 -26 -36 -49 -43 -44 -48 -52 -25 -44 21 9 19 -18 -4 -45
-10 -11 -24 -42 -32 -69 -7 -26 -17 -51 -21 -57 -5 -5 -17 -21 -28 -34 -11
-13 -19 -33 -19 -45 2 -20 2 -20 6 2 6 31 19 27 32 -9 15 -44 14 -49 -9 -49
-11 0 -20 -5 -20 -12 0 -6 -7 -19 -15 -28 -14 -15 -13 -18 10 -30 20 -11 25
-21 25 -51 0 -34 4 -40 27 -45 15 -4 38 -18 51 -31 12 -12 31 -23 41 -23 10 0
24 -7 31 -15 7 -8 19 -15 26 -15 8 0 13 -3 12 -7 -2 -13 14 -43 21 -39 3 2 11
-6 18 -20 9 -20 7 -27 -13 -49 -27 -29 -30 -40 -11 -32 7 3 12 -5 13 -22 1
-14 -1 -20 -3 -13 -3 6 -15 12 -29 12 -18 0 -23 5 -21 21 1 12 -5 24 -13 27
-13 4 -13 3 -2 -10 10 -13 10 -17 0 -21 -9 -4 -6 -11 11 -25 13 -11 21 -24 17
-31 -4 -6 0 -14 9 -17 9 -4 14 -13 11 -21 -3 -8 1 -21 9 -29 8 -9 15 -21 14
-27 0 -9 -2 -8 -6 1 -2 6 -11 12 -19 12 -9 0 -14 11 -14 29 0 24 -4 29 -25 29
-25 0 -25 -1 -9 -19 10 -11 14 -22 11 -26 -4 -3 3 -11 15 -17 12 -6 22 -19 24
-29 4 -27 24 -47 48 -47 20 -1 20 -2 4 -14 -22 -16 -24 -56 -3 -56 8 0 15 -5
15 -11 0 -6 6 -9 12 -7 16 6 33 -11 42 -39 8 -24 -4 -36 -23 -24 -10 6 -10 10
-2 16 9 5 9 10 0 21 -13 16 -59 19 -59 4 0 -5 6 -10 14 -10 8 0 13 -6 12 -12
-3 -22 -17 -38 -32 -38 -14 0 -13 2 0 16 23 22 20 28 -6 10 -12 -9 -36 -17
-53 -17 l-30 -1 30 -8 c25 -6 27 -8 12 -14 -9 -5 -23 -6 -31 -3 -14 6 -15 -15
-2 -45 6 -13 15 -16 37 -11 19 4 29 1 29 -7 0 -7 -7 -10 -15 -6 -17 6 -22 -29
-5 -39 5 -3 15 -15 21 -27 8 -15 8 -19 0 -14 -6 4 -11 1 -11 -8 0 -8 -6 -17
-12 -20 -10 -5 -10 -7 0 -12 6 -3 12 -12 12 -20 0 -9 4 -13 9 -10 14 9 41 -4
41 -20 0 -8 5 -14 10 -14 6 0 10 -7 10 -16 0 -10 6 -14 15 -10 13 5 20 -5 16
-26 0 -5 6 -8 15 -8 8 0 13 4 10 9 -11 17 13 63 29 57 16 -6 40 28 30 44 -3 6
-2 10 3 10 5 0 14 -11 20 -25 9 -20 9 -25 -2 -25 -8 0 -16 -9 -19 -20 -4 -17
0 -20 25 -20 34 0 34 -23 0 -28 -12 -2 -20 -8 -17 -13 7 -10 -3 -12 -58 -9
-21 1 -44 -4 -52 -10 -12 -10 -16 -9 -21 3 -3 8 -13 13 -23 10 -11 -3 -26 7
-43 29 -14 18 -58 66 -97 107 -39 40 -71 78 -71 84 0 5 -10 18 -22 28 -11 11
-17 19 -13 19 5 0 2 6 -7 13 -9 6 -18 21 -20 32 -3 14 -11 19 -26 18 -18 -2
-26 4 -33 26 -6 16 -17 32 -25 35 -9 4 -12 11 -8 18 11 17 12 108 2 108 -15 0
-8 15 21 49 23 27 28 39 20 53 -6 10 -14 16 -20 13 -5 -4 -9 -2 -9 3 0 6 7 12
15 16 18 6 20 42 3 52 -7 5 -9 2 -5 -8 4 -12 0 -15 -18 -13 -23 2 -40 -17 -36
-41 0 -6 -5 -16 -12 -23 -17 -13 -64 6 -70 29 -2 8 -3 2 -1 -14 3 -18 -2 -37
-13 -48 -15 -17 -15 -21 -3 -29 13 -8 13 -10 0 -19 -8 -5 -21 -10 -28 -10 -8
0 -25 -9 -39 -20 -19 -15 -30 -17 -43 -10 -10 6 -28 10 -40 10 -11 0 -24 8
-27 18 -4 9 -13 22 -21 28 -8 6 -12 16 -8 22 13 21 -5 42 -31 35 -14 -3 -33
-7 -42 -8 -9 -1 -25 -5 -35 -10 -19 -8 -19 -9 -1 -15 18 -6 17 -9 -8 -33 -19
-16 -24 -28 -17 -32 8 -5 4 -16 -12 -34 -13 -14 -29 -38 -36 -53 -6 -16 -18
-28 -27 -28 -8 0 -15 -4 -15 -10 0 -6 9 -6 25 0 28 10 44 -4 17 -15 -37 -16
-67 -11 -70 13 -2 12 1 22 7 22 6 0 11 5 11 12 0 13 60 110 75 120 5 4 15 9
20 11 6 3 7 8 3 12 -4 4 -26 -9 -48 -29 -22 -20 -38 -36 -35 -36 12 0 -37 -66
-93 -124 -26 -27 -27 -41 -8 -78 8 -15 13 -33 11 -40 -14 -65 -19 -77 -27 -72
-5 3 -7 12 -4 19 6 15 -42 25 -70 14 -16 -6 -16 -8 -2 -8 12 -1 16 -11 16 -38
0 -21 4 -58 10 -83 6 -27 7 -46 1 -48 -12 -5 -12 -32 1 -32 6 0 10 -7 10 -15
0 -18 -16 -20 -23 -3 -4 9 -6 8 -6 -2 -1 -9 5 -22 11 -28 10 -10 10 -15 -1
-21 -9 -6 -10 -10 -2 -16 7 -4 10 -26 8 -56 -8 -92 40 -33 72 89 23 90 72 202
87 202 7 0 9 10 6 26 -4 20 -1 25 9 22 17 -6 14 -49 -6 -93 -7 -16 -16 -50
-20 -75 -3 -24 -14 -58 -25 -75 -10 -16 -21 -47 -25 -68 -6 -32 -5 -36 9 -31
18 7 23 -20 6 -31 -12 -8 -13 -45 -1 -45 13 0 47 61 53 96 9 49 35 134 43 142
4 4 10 1 12 -5 3 -7 14 -13 26 -12 12 0 16 3 9 6 -6 2 -9 10 -5 16 8 13 10 21
20 92 7 41 12 50 33 55 16 4 29 1 36 -8 8 -11 18 -12 52 -3 23 7 42 16 42 21
0 6 7 10 15 10 8 0 15 5 15 11 0 7 10 9 25 5 18 -5 25 -2 25 9 0 18 -8 19 -41
1 -25 -13 -94 -14 -106 -2 -3 3 -14 1 -24 -5 -16 -8 -19 -6 -19 10 0 11 6 22
13 25 6 3 0 3 -15 0 -21 -5 -28 -2 -28 9 0 8 -3 22 -6 31 -4 11 3 19 22 27 16
7 34 11 40 10 8 -1 11 12 10 34 -1 28 2 34 14 29 8 -4 31 -6 52 -5 31 1 39 -3
58 -34 22 -36 37 -47 26 -20 -7 19 19 20 73 1 33 -12 42 -13 48 -2 10 18 53
31 53 17 0 -6 11 -11 25 -11 32 0 32 -14 1 -28 -19 -8 -23 -16 -19 -33 5 -18
3 -21 -13 -17 -15 4 -20 0 -22 -19 -3 -35 -10 -43 -38 -43 -16 0 -24 -6 -24
-18 0 -10 -13 -28 -30 -40 -25 -19 -30 -20 -30 -7 0 14 -2 14 -13 3 -7 -7 -16
-21 -20 -31 -4 -11 -12 -15 -19 -11 -9 6 -9 9 0 12 16 5 15 22 -1 22 -19 0
-67 -42 -67 -58 0 -7 4 -10 10 -7 6 3 10 1 10 -4 0 -6 -7 -11 -16 -11 -19 0
-15 -31 5 -38 9 -3 11 0 6 8 -11 17 8 6 61 -37 31 -25 43 -30 52 -21 20 20 14
31 -13 26 -14 -3 -28 -2 -31 3 -3 5 13 12 36 15 38 6 57 24 25 24 -8 0 -15 5
-15 10 0 14 33 12 54 -3 26 -19 14 -48 -34 -77 -30 -19 -40 -31 -38 -47 4 -30
-37 -72 -64 -65 -17 4 -19 2 -13 -17 4 -15 2 -21 -8 -21 -21 0 -41 -28 -42
-58 0 -25 -4 -27 -38 -25 -39 3 -51 -11 -17 -20 11 -3 19 -11 18 -18 -2 -9 7
-13 27 -11 17 2 43 -1 57 -7 24 -9 28 -7 42 19 17 35 11 70 -13 71 -10 0 -11
2 -3 6 6 2 9 10 5 16 -4 7 0 8 13 3 22 -9 23 -9 47 -7 9 0 17 7 17 15 0 7 9
16 20 19 22 6 26 -3 8 -21 -6 -6 -8 -15 -4 -19 4 -5 14 0 21 10 15 21 26 9 19
-20 -7 -26 -39 -36 -55 -17 -14 17 -32 18 -27 2 8 -23 48 -36 83 -28 25 6 38
4 46 -6 6 -8 20 -14 31 -14 25 0 51 -27 44 -45 -4 -12 3 -15 33 -15 35 0 38
-2 33 -25 -4 -24 3 -30 36 -26 15 2 16 -11 0 -27 -9 -9 -9 -12 0 -12 7 0 12 5
12 10 0 6 5 10 10 10 6 0 10 -13 10 -28 0 -34 40 -62 62 -45 8 6 21 7 33 2 11
-4 14 -8 7 -8 -10 -1 -10 -5 0 -21 8 -13 20 -18 35 -16 19 4 23 -1 29 -30 3
-19 10 -34 15 -34 16 0 37 -64 26 -77 -5 -7 -14 -10 -21 -6 -6 3 -8 3 -4 -1 3
-4 1 -28 -7 -52 -12 -40 -6 -60 10 -34 4 6 11 8 16 4 19 -11 -4 -25 -40 -23
-62 3 -69 1 -67 -26 0 -14 4 -25 9 -25 4 0 7 -4 7 -8 0 -5 -13 -7 -30 -4 -16
2 -30 10 -30 17 0 14 -48 30 -58 20 -4 -3 -1 -14 5 -24 7 -11 9 -21 7 -24 -9
-8 -77 23 -91 42 -11 15 -12 15 -13 -1 0 -25 -10 -23 -52 12 -41 34 -43 32
-54 -50 -6 -46 -9 -50 -33 -50 -26 0 -33 9 -59 80 -6 16 -31 37 -63 54 -30 16
-71 44 -92 63 l-38 34 -40 -23 c-32 -18 -42 -20 -48 -9 -5 8 -17 11 -29 7 -17
-6 -23 -2 -28 21 -7 28 -43 81 -55 82 -7 1 12 -90 33 -162 6 -20 27 -56 47
-78 29 -35 31 -40 13 -35 -35 12 -25 -8 22 -44 48 -35 68 -64 38 -53 -12 4 -9
-3 9 -23 15 -16 26 -38 26 -48 0 -14 -11 -7 -44 30 -127 142 -150 166 -177
179 -27 14 -28 13 -23 -5 3 -11 4 -20 2 -20 -1 0 -19 16 -40 35 -20 20 -39 34
-42 32 -2 -3 14 -42 36 -88 22 -46 40 -88 40 -93 -1 -5 6 -13 15 -18 9 -5 14
-13 11 -18 -3 -5 9 -31 28 -57 18 -26 36 -56 40 -66 3 -9 11 -17 17 -17 6 0 8
5 5 10 -3 6 -4 10 -1 10 7 0 59 -113 61 -133 3 -28 39 -71 76 -88 28 -14 30
-17 14 -20 -17 -4 -15 -7 14 -29 19 -13 31 -19 27 -12 -18 30 30 8 72 -33 25
-25 49 -45 53 -45 4 0 44 -36 89 -80 45 -44 84 -80 87 -80 3 0 -2 11 -11 25
-28 43 0 27 40 -22 54 -66 83 -93 98 -87 15 6 41 -22 50 -53 6 -19 4 -23 -14
-23 -22 0 -47 22 -111 99 -33 40 -38 43 -65 34 l-29 -10 23 -12 c12 -6 22 -21
22 -31 0 -11 4 -20 8 -20 4 0 17 -21 27 -47 11 -26 30 -65 43 -88 34 -60 65
-128 66 -145 1 -8 13 -37 27 -65 15 -27 30 -61 34 -75 l7 -25 -23 22 c-22 20
-58 84 -79 138 -11 28 -57 131 -83 184 -31 64 -78 134 -102 151 -11 8 -29 24
-40 35 -11 11 -31 26 -45 33 -14 7 -43 25 -66 40 -22 15 -66 44 -97 65 -70 47
-90 48 -41 2 20 -19 39 -35 41 -35 8 0 64 -62 60 -67 -6 -6 -47 20 -47 29 0 5
-5 8 -11 8 -7 0 -17 7 -24 17 -8 11 -18 14 -31 9 -18 -7 -18 -8 1 -18 21 -12
77 -68 68 -68 -3 0 6 -15 20 -34 29 -37 70 -144 61 -158 -3 -5 1 -15 9 -21 8
-7 23 -25 33 -42 10 -17 12 -25 4 -17 -8 6 -21 12 -29 12 -10 0 -5 -10 15 -31
21 -22 24 -28 10 -23 -17 7 -17 5 2 -14 12 -12 25 -23 30 -24 9 -2 42 -44 42
-53 0 -3 -4 -4 -9 -1 -5 4 -11 1 -13 -6 -3 -7 -21 1 -48 23 -65 50 -72 58 -64
70 4 8 3 9 -4 5 -15 -9 -73 45 -160 149 -94 114 -111 130 -167 160 -27 15 -61
37 -75 49 -14 12 -34 28 -45 36 -17 12 -17 11 3 -11 27 -31 28 -43 3 -29 -38
20 -42 9 -11 -34 17 -26 30 -57 30 -75 0 -18 9 -40 20 -51 11 -11 20 -24 20
-29 0 -8 39 -52 118 -134 20 -21 56 -52 80 -69 23 -17 42 -35 42 -40 0 -4 5
-8 11 -8 11 0 82 -55 178 -137 24 -21 52 -41 61 -45 10 -4 30 -23 45 -42 15
-20 32 -36 37 -36 8 0 74 -48 106 -78 7 -6 22 -17 33 -22 10 -6 19 -16 19 -23
0 -7 -3 -8 -8 -2 -9 13 -154 85 -170 85 -7 0 -12 4 -12 9 0 7 -56 36 -115 60
-5 2 2 -8 18 -22 15 -15 34 -24 42 -21 8 4 15 1 15 -5 0 -6 -5 -11 -11 -11 -6
0 -4 -7 5 -15 8 -8 19 -15 25 -15 5 0 18 -11 29 -25 11 -14 24 -25 29 -25 6 0
15 -11 21 -25 6 -14 18 -25 27 -25 8 0 15 -7 15 -15 0 -8 7 -15 15 -15 8 0 19
-9 25 -20 6 -11 21 -22 34 -26 13 -3 36 -19 52 -35 15 -16 31 -29 36 -29 4 0
29 -16 55 -36 27 -20 59 -42 73 -48 14 -6 35 -20 47 -30 23 -20 69 -49 134
-85 19 -11 41 -27 48 -35 8 -9 17 -16 21 -16 8 0 213 -94 273 -125 16 -8 34
-15 40 -15 7 0 35 -12 62 -27 57 -30 285 -105 372 -123 32 -6 101 -22 153 -36
52 -13 163 -33 245 -44 83 -11 197 -30 255 -43 93 -19 133 -22 340 -21 242 1
264 3 615 60 452 74 878 230 1330 488 240 137 363 235 665 524 453 436 602
614 793 954 101 179 203 407 282 628 86 242 124 561 129 1100 2 195 7 438 11
540 6 165 5 199 -15 315 -30 175 -67 316 -139 529 -60 176 -159 406 -205 476
-13 19 -27 46 -31 60 -9 27 -136 252 -193 340 -55 85 -227 305 -321 410 -131
146 -394 396 -511 485 -132 100 -283 195 -312 195 -17 0 -130 59 -139 72 -3 5
-34 12 -69 14 -57 5 -62 3 -50 -10 9 -12 9 -16 1 -16 -18 0 -2 -20 23 -30 16
-7 11 -9 -26 -9 -30 -1 -48 3 -48 10 0 15 -44 56 -67 63 -93 28 -224 56 -262
56 l-46 -1 39 -19 c22 -11 57 -20 77 -20 46 0 126 -26 148 -48 14 -14 13 -15
-11 -9 -14 4 -34 10 -44 14 -11 4 -15 3 -10 -5 10 -16 -21 -22 -96 -18 -48 2
-66 0 -61 -8 13 -20 10 -47 -4 -42 -7 3 -13 1 -13 -3 0 -5 4 -11 9 -13 5 -1 3
-8 -4 -15 -10 -9 -17 -9 -31 2 -18 13 -18 14 3 9 18 -5 21 -3 16 15 -3 14 -12
21 -22 19 -20 -5 -18 -53 3 -77 12 -14 12 -18 -1 -30 -9 -8 -11 -20 -7 -30 4
-9 7 -28 6 -42 -1 -19 6 -29 24 -37 13 -7 24 -16 24 -22 0 -5 8 -9 18 -8 24 3
110 -24 94 -29 -7 -3 -27 0 -44 6 -17 6 -46 11 -65 11 -31 0 -33 -2 -23 -21 7
-11 10 -21 8 -22 -2 -1 -13 -8 -25 -14 -13 -7 -29 -13 -37 -13 -8 0 -16 -5
-18 -12 -3 -8 -20 -1 -48 20 -24 18 -51 32 -59 32 -9 0 -43 -21 -75 -46 l-59
-47 -18 24 -18 24 -35 -19 c-20 -11 -36 -23 -36 -28 0 -4 -7 -8 -15 -8 -8 0
-15 7 -15 15 0 8 5 15 10 15 6 0 10 7 10 15 0 8 19 29 43 46 23 17 42 34 42
39 0 5 3 12 8 16 14 14 7 24 -35 51 l-43 26 28 10 c22 7 26 12 16 23 -8 10 -8
14 0 14 18 0 13 18 -6 23 -10 2 -3 2 15 0 36 -4 44 11 10 20 -18 5 -19 9 -9
21 7 8 9 20 5 27 -5 8 1 10 20 7 14 -3 26 -1 26 3 0 5 -7 9 -15 9 -8 0 -15 5
-15 10 0 6 9 10 21 10 15 0 19 5 15 15 -3 8 0 16 7 16 7 1 17 2 22 4 6 1 18 3
27 3 9 1 21 17 28 36 6 19 18 37 26 40 11 4 12 10 5 25 -9 16 -7 19 19 23 66
10 206 -3 310 -28 61 -14 117 -23 126 -20 10 4 13 2 8 -6 -5 -8 1 -9 22 -4 16
4 32 13 36 19 10 16 -51 48 -77 41 -16 -4 -17 -3 -5 5 11 7 -4 18 -64 45 -91
42 -97 43 -65 16 28 -23 15 -26 -21 -5 -14 8 -34 14 -45 15 -12 0 -38 9 -60
20 -22 11 -49 20 -62 20 -12 0 -24 4 -27 9 -3 5 -18 11 -33 14 -16 3 -62 15
-103 27 -106 30 -213 56 -298 70 -49 9 -69 16 -60 22 10 8 10 9 -1 6 -20 -6
-26 -28 -7 -28 24 0 126 -40 126 -50 0 -5 -15 -4 -32 1 -43 12 -49 11 -45 -3
4 -22 -37 -20 -83 3 -25 13 -46 27 -48 32 -2 4 -10 7 -17 7 -7 0 -15 5 -17 10
-6 19 -77 24 -96 7 -15 -14 -26 -14 -98 -1 -45 7 -94 18 -109 24 -14 5 -49 10
-77 10 l-51 0 27 -21z m556 -119 c0 -5 -7 -7 -15 -4 -8 4 -15 8 -15 10 0 2 7
4 15 4 8 0 15 -4 15 -10z m-80 -40 c0 -5 -2 -10 -4 -10 -3 0 -8 5 -11 10 -3 6
-1 10 4 10 6 0 11 -4 11 -10z m30 -17 c0 -14 2 -15 9 -4 7 11 12 10 27 -5 16
-16 73 -38 184 -72 11 -3 9 -7 -8 -15 -17 -8 -31 -6 -58 6 -19 9 -41 17 -49
17 -8 0 -15 4 -15 8 0 10 -60 32 -86 32 -16 0 -17 -2 -4 -10 11 -7 5 -10 -24
-10 -79 0 -176 -70 -151 -109 9 -16 -3 -31 -20 -25 -10 4 -13 18 -11 45 4 42
20 69 41 69 7 0 23 8 36 19 13 10 33 21 44 23 11 2 19 10 18 16 -2 7 8 12 22
12 14 0 25 5 25 10 0 6 5 10 10 10 6 0 10 -8 10 -17z m-43 -79 c-3 -3 -12 -4
-19 -1 -8 3 -5 6 6 6 11 1 17 -2 13 -5z m-125 -149 c38 -14 89 -25 114 -25 25
0 44 -5 44 -11 0 -6 6 -9 13 -6 8 3 14 -1 14 -9 0 -17 -3 -17 -29 -3 -14 8
-23 8 -31 0 -8 -8 -6 -11 9 -11 10 -1 30 -7 44 -15 25 -14 24 -14 -10 -8 -32
6 -34 5 -21 -10 12 -15 11 -17 -3 -17 -9 0 -16 -4 -16 -10 0 -5 -13 -10 -29
-10 -16 0 -31 -4 -33 -8 -4 -13 -68 -23 -68 -12 0 5 15 13 33 18 l32 9 -47 8
c-26 4 -51 4 -57 1 -5 -4 -12 -2 -16 4 -3 5 -16 10 -28 11 -21 0 -21 1 -2 9
11 5 34 9 50 10 20 2 24 4 11 7 -23 6 -234 -26 -259 -39 -10 -5 -27 -6 -39 -2
l-22 7 22 17 c20 17 21 20 7 34 -14 13 -13 16 4 26 24 12 41 13 21 0 -8 -5
-12 -11 -9 -14 7 -8 88 22 119 44 22 16 46 23 99 29 7 0 45 -10 83 -24z m-347
-30 c-16 -7 -25 -14 -20 -15 6 -1 -3 -6 -19 -11 -17 -4 -32 -7 -33 -5 -7 7 63
46 82 45 15 0 13 -3 -10 -14z m1465 -5 c0 -5 -7 -7 -15 -4 -8 4 -15 8 -15 10
0 2 7 4 15 4 8 0 15 -4 15 -10z m-893 -16 c-3 -3 -12 -4 -19 -1 -8 3 -5 6 6 6
11 1 17 -2 13 -5z m30 -19 c0 -8 -8 -15 -18 -15 -27 0 -32 18 -7 23 13 2 23 5
24 6 0 0 1 -6 1 -14z m130 -11 c-3 -3 -12 -4 -19 -1 -8 3 -5 6 6 6 11 1 17 -2
13 -5z m-771 -31 c-3 -21 -46 -39 -70 -30 -26 10 -9 27 25 27 18 0 28 4 24 10
-3 6 0 10 9 10 8 0 13 -8 12 -17z m662 -3 c10 -17 10 -20 -5 -20 -28 0 -63 12
-63 20 0 5 10 11 23 13 12 2 24 5 27 6 3 0 11 -8 18 -19z m-738 -65 c0 -17 -2
-18 -24 -9 -23 9 -20 24 4 24 11 0 20 -7 20 -15z m-128 -122 c-6 -2 -10 -9 -6
-14 6 -11 -50 -12 -86 -2 -23 7 -21 8 15 14 50 8 94 9 77 2z m-137 -13 c4 -6
-7 -10 -25 -10 -18 0 -29 4 -25 10 3 6 15 10 25 10 10 0 22 -4 25 -10z m-755
-75 c-26 -28 -70 -39 -70 -18 0 8 3 12 8 10 4 -3 23 10 42 30 28 27 36 31 38
18 2 -9 -6 -27 -18 -40z m827 29 c-3 -3 -12 -4 -19 -1 -8 3 -5 6 6 6 11 1 17
-2 13 -5z m-119 -30 c12 -12 27 -15 61 -10 50 7 131 -15 152 -40 11 -14 8 -15
-27 -9 -21 4 -52 11 -69 15 -16 5 -48 5 -70 1 -36 -8 -37 -9 -10 -10 17 -1 41
-10 55 -21 l25 -20 -30 0 c-16 0 -36 4 -44 9 -16 11 -74 -7 -66 -20 3 -4 13
-6 23 -2 9 3 6 -3 -8 -13 -35 -25 -50 -41 -50 -51 0 -5 -13 -22 -30 -38 -16
-16 -30 -32 -30 -36 0 -13 75 19 78 34 4 18 34 27 82 26 19 -1 26 -3 15 -6
-47 -10 -49 -12 -30 -33 9 -10 14 -23 11 -28 -10 -17 17 -30 87 -42 37 -7 67
-13 67 -15 0 -1 7 -18 14 -37 14 -33 14 -37 -10 -71 -14 -21 -22 -37 -19 -37
4 0 -14 -16 -39 -35 -26 -19 -51 -35 -56 -35 -15 0 -12 36 3 49 16 12 10 72
-7 83 -6 5 0 8 14 8 30 0 56 15 42 23 -14 10 -65 11 -84 2 -11 -4 -18 -3 -18
4 0 6 -9 11 -20 11 -14 0 -20 -6 -18 -17 2 -12 -3 -17 -14 -15 -12 2 -15 -3
-11 -17 7 -26 -54 -61 -69 -39 -7 10 -11 9 -21 -6 -26 -41 -59 -76 -73 -76
-14 0 -163 -126 -201 -172 -16 -17 -30 -24 -43 -21 -15 4 -20 0 -20 -13 0 -11
-9 -25 -20 -32 -11 -7 -20 -9 -20 -5 0 5 -10 9 -23 9 -16 1 -31 -10 -50 -37
l-28 -39 25 10 c14 5 26 6 26 2 0 -11 -56 -52 -70 -52 -14 0 -13 -17 3 -23 7
-3 -6 -23 -35 -52 -27 -26 -48 -53 -48 -60 0 -7 -7 -18 -15 -25 -12 -10 -15
-9 -16 6 0 18 -1 18 -12 1 -7 -10 -24 -32 -39 -49 -16 -18 -28 -36 -28 -41 0
-16 -70 -77 -90 -77 -10 0 -21 -4 -24 -9 -7 -11 -56 -21 -56 -11 0 14 42 50
58 50 9 0 23 9 30 20 7 11 18 17 27 14 8 -4 15 -1 15 6 0 6 -4 8 -10 5 -16
-10 -12 11 5 25 9 7 13 20 10 29 -3 11 8 30 30 51 19 19 35 40 35 48 0 8 5 10
13 6 6 -4 9 -4 5 1 -4 4 4 29 18 56 24 49 38 64 28 32 -5 -15 -3 -14 10 2 39
50 62 74 70 75 16 0 46 32 46 49 0 9 9 27 20 41 29 37 24 56 -6 21 -29 -34
-44 -39 -44 -15 0 12 -3 14 -13 6 -18 -15 -36 -1 -43 34 -5 28 -3 31 34 42 22
7 48 12 60 12 11 0 51 24 88 53 67 50 109 81 143 102 9 6 22 18 29 28 7 9 24
17 37 17 17 0 37 19 78 73 30 39 57 79 60 87 4 8 14 25 23 38 15 20 15 22 1
22 -9 0 -19 -4 -22 -10 -13 -21 -25 -9 -21 23 2 21 11 36 26 44 32 16 74 63
58 64 -7 0 -3 4 9 9 23 9 22 36 -1 52 -6 4 4 8 22 8 18 0 41 -7 50 -16z m-220
-5 c30 0 33 -2 17 -9 -36 -15 -85 -12 -85 6 0 11 5 14 16 10 9 -3 32 -6 52 -7z
m485 -26 c-7 -2 -19 -2 -25 0 -7 3 -2 5 12 5 14 0 19 -2 13 -5z m347 -30 c0
-8 -4 -12 -9 -8 -6 3 -18 -6 -28 -20 -26 -38 -114 -125 -126 -125 -5 0 -4 6 3
14 9 12 5 16 -27 21 -60 10 -61 11 -7 19 29 3 58 14 65 23 12 14 11 15 -8 9
-28 -9 -51 2 -32 15 8 5 25 9 39 9 14 0 33 9 42 20 16 18 16 20 -4 34 -20 14
-18 15 23 18 47 3 69 -6 69 -29z m-297 20 c-7 -2 -19 -2 -25 0 -7 3 -2 5 12 5
14 0 19 -2 13 -5z m357 -3 c0 -5 -10 -10 -22 -9 -22 0 -22 1 -3 9 11 5 21 9
23 9 1 1 2 -3 2 -9z m410 -10 c0 -26 -48 -59 -60 -40 -4 7 -17 10 -29 7 -12
-3 -21 -2 -21 2 0 16 36 39 65 44 17 2 33 5 38 6 4 0 7 -8 7 -19z m-1321 -69
c12 -8 9 -11 -11 -16 -29 -8 -52 1 -43 16 8 12 36 11 54 0z m1285 -12 c-3 -5
-1 -15 5 -22 15 -19 -9 -60 -42 -71 -35 -13 -48 2 -19 21 12 9 22 24 22 35 0
27 19 60 31 53 5 -4 7 -11 3 -16z m144 -7 c2 -7 -5 -12 -17 -12 -14 0 -19 5
-14 15 6 17 25 15 31 -3z m490 -4 c18 -18 14 -42 -10 -58 -12 -8 -34 -27 -49
-42 -22 -23 -29 -25 -38 -14 -11 13 5 40 56 94 7 7 13 18 13 23 0 13 14 11 28
-3z m-1375 -5 c-7 -2 -21 -2 -30 0 -10 3 -4 5 12 5 17 0 24 -2 18 -5z m1618
-22 c-11 -7 -10 -10 5 -13 10 -2 -6 -4 -36 -4 -30 -1 -40 1 -22 3 17 2 32 8
32 14 0 5 8 9 18 9 14 0 14 -2 3 -9z m6 -42 c6 -6 9 -17 7 -24 -3 -7 5 -15 19
-19 14 -3 27 -14 29 -23 4 -14 -2 -18 -29 -20 -29 -1 -32 1 -22 13 9 11 9 14
-1 14 -7 0 -19 -8 -26 -17 -10 -15 -15 -16 -25 -5 -7 6 -22 12 -32 12 -11 0
-21 9 -24 21 -4 13 -11 18 -21 14 -13 -5 -13 -3 -1 11 8 10 15 12 17 5 2 -6 8
-9 13 -5 5 3 9 0 9 -5 0 -6 9 -11 21 -11 18 0 20 4 15 25 -5 21 -3 25 17 25
13 0 28 -5 34 -11z m-200 -15 c-3 -3 -12 -4 -19 -1 -8 3 -5 6 6 6 11 1 17 -2
13 -5z m38 -34 c3 -5 1 -10 -4 -10 -6 0 -11 5 -11 10 0 6 2 10 4 10 3 0 8 -4
11 -10z m-1993 -42 c-7 -7 -12 -8 -12 -2 0 14 12 26 19 19 2 -3 -1 -11 -7 -17z
m2068 2 c-11 -7 0 -10 38 -10 28 0 52 -2 52 -3 0 -2 -7 -18 -16 -35 -16 -34
-29 -40 -37 -19 -3 6 -6 2 -6 -10 -1 -15 -9 -25 -26 -29 -14 -3 -25 -10 -25
-15 0 -5 -11 -9 -25 -9 -14 0 -25 -6 -25 -13 0 -7 -13 -18 -30 -24 -31 -11
-35 -8 -31 24 1 7 -6 12 -16 11 -36 -3 -63 2 -63 12 0 6 8 10 19 10 41 0 79
21 79 44 0 21 -3 23 -34 16 -19 -5 -34 -4 -34 1 0 5 7 9 15 9 8 0 24 9 36 21
17 17 25 19 47 10 l27 -11 -30 5 -30 4 31 -14 c17 -8 35 -22 38 -32 6 -15 8
-15 16 -3 14 21 12 30 -5 30 -8 0 -15 7 -15 15 0 18 20 20 20 3 0 -7 5 -5 11
5 5 9 15 17 22 17 7 0 6 -4 -3 -10z m-2440 -10 c0 -5 -4 -10 -9 -10 -6 0 -13
5 -16 10 -3 6 1 10 9 10 9 0 16 -4 16 -10z m328 -49 c-7 -12 -16 -21 -21 -21
-4 0 0 11 9 25 20 30 31 26 12 -4z m1162 -6 c-7 -14 -19 -25 -27 -25 -7 0 -13
-7 -13 -15 0 -8 -6 -15 -14 -15 -22 0 -7 37 26 66 35 29 47 25 28 -11z m-1543
19 c-3 -3 -12 -4 -19 -1 -8 3 -5 6 6 6 11 1 17 -2 13 -5z m-1007 -18 c0 -11
-19 -15 -25 -6 -3 5 1 10 9 10 9 0 16 -2 16 -4z m445 -6 c-3 -5 -10 -10 -16
-10 -5 0 -9 5 -9 10 0 6 7 10 16 10 8 0 12 -4 9 -10z m2925 0 c0 -5 -4 -10
-10 -10 -5 0 -10 5 -10 10 0 6 5 10 10 10 6 0 10 -4 10 -10z m-60 -14 c0 -3
-4 -8 -10 -11 -5 -3 -10 -1 -10 4 0 6 5 11 10 11 6 0 10 -2 10 -4z m-535 -46
c-3 -5 -10 -10 -16 -10 -5 0 -9 5 -9 10 0 6 7 10 16 10 8 0 12 -4 9 -10z m65
-20 c0 -5 -5 -10 -11 -10 -5 0 -7 5 -4 10 3 6 8 10 11 10 2 0 4 -4 4 -10z
m-2470 -60 c0 -6 7 -10 16 -8 10 2 19 -3 22 -11 3 -8 0 -11 -7 -7 -14 9 -206
-76 -195 -87 3 -3 -5 -3 -18 -1 -22 5 -22 5 -4 -10 10 -8 22 -13 27 -11 4 3
10 1 14 -5 3 -5 19 -7 35 -3 19 3 30 1 30 -6 0 -6 8 -11 19 -11 10 0 25 -7 32
-17 12 -14 12 -16 -1 -11 -8 3 -25 1 -38 -3 -20 -8 -23 -6 -17 11 5 17 2 20
-20 20 -26 0 -99 -32 -109 -49 -3 -5 -26 -12 -51 -15 -25 -4 -43 -11 -40 -17
8 -11 -82 -69 -108 -69 -11 0 -21 -9 -24 -21 -4 -15 -11 -19 -27 -15 -11 3
-24 6 -28 6 -15 0 -8 24 18 57 14 18 29 31 34 28 4 -3 11 1 13 7 4 10 8 9 16
-2 6 -8 11 -10 11 -4 0 11 69 49 83 46 5 -2 6 2 3 7 -4 5 -2 12 4 16 6 4 8 11
4 16 -3 5 -10 7 -15 4 -5 -4 -9 -2 -9 3 0 5 14 12 30 14 20 3 30 0 30 -9 0 -7
-4 -13 -10 -13 -5 0 -10 -4 -10 -9 0 -5 9 -7 20 -4 19 5 25 16 21 37 -3 18 11
46 23 46 8 0 27 13 42 29 17 17 53 36 84 46 30 9 62 20 70 25 21 12 30 12 30
0z m3519 -14 c24 -15 9 -24 -16 -10 -16 7 -36 14 -45 14 -10 0 -18 4 -18 9 0
9 58 -1 79 -13z m-59 -8 c8 -3 -6 -7 -32 -9 -27 -2 -48 -2 -48 1 0 10 45 26
55 19 6 -3 17 -9 25 -11z m-508 -15 c-20 -3 -30 -8 -26 -15 4 -7 2 -8 -4 -4
-24 14 -11 26 26 24 37 -1 37 -1 4 -5z m-2592 -11 c0 -12 -39 -46 -45 -41 -6
7 24 49 36 49 5 0 9 -4 9 -8z m-196 -13 c-4 -7 8 -10 37 -9 60 3 66 1 49 -10
-23 -15 -87 -12 -93 4 -3 8 -3 17 0 20 10 10 15 7 7 -5z m3229 -19 c-27 -30
-43 -38 -43 -20 0 13 41 50 57 50 8 0 2 -12 -14 -30z m-186 -17 c30 -19 39
-58 13 -58 -8 0 -14 6 -12 13 1 8 -2 11 -8 7 -5 -3 -15 6 -20 20 -16 42 -14
43 27 18z m117 -18 c3 -9 -1 -18 -10 -22 -19 -7 -26 0 -18 21 8 20 20 21 28 1z
m-25 -39 c10 -12 6 -46 -5 -46 -3 0 -16 8 -30 17 -25 16 -25 17 -8 30 22 16
29 16 43 -1z m-3109 -16 c0 -5 -4 -10 -10 -10 -5 0 -10 5 -10 10 0 6 5 10 10
10 6 0 10 -4 10 -10z m468 -35 c-4 -11 -28 -16 -28 -6 0 12 13 22 23 18 5 -1
7 -7 5 -12z m-782 -37 c3 -13 15 -31 25 -41 23 -21 24 -31 4 -47 -12 -10 -16
-9 -21 5 -6 16 -8 16 -23 -4 -11 -14 -20 -18 -30 -12 -11 7 -9 13 8 30 23 23
28 47 10 53 -11 4 -2 38 11 38 5 0 12 -10 16 -22z m679 -43 c-9 -11 -18 -27
-21 -35 -32 -78 -66 -132 -49 -77 3 12 8 32 10 44 2 13 11 43 20 67 15 40 19
43 36 33 17 -10 17 -13 4 -32z m-585 -134 c0 -5 -7 -14 -15 -21 -17 -14 -21
-35 -5 -25 16 10 49 -5 44 -19 -3 -8 -15 -19 -27 -25 -21 -11 -21 -11 3 -4 48
12 70 12 70 -2 0 -8 -7 -18 -16 -23 -9 -5 -15 -13 -14 -18 1 -5 -3 -10 -10
-12 -6 -2 -9 2 -8 10 2 7 -4 13 -12 13 -8 0 -15 -7 -15 -15 0 -9 -11 -16 -27
-18 -34 -4 -35 4 -5 29 19 15 19 18 5 19 -33 0 -8 118 25 120 4 0 7 -4 7 -9z
m4677 -6 c8 -9 13 -18 11 -21 -3 -2 -13 5 -23 16 -21 23 -11 27 12 5z m-4567
-45 c0 -5 -5 -10 -11 -10 -5 0 -7 5 -4 10 3 6 8 10 11 10 2 0 4 -4 4 -10z
m2650 6 c0 -3 -4 -8 -10 -11 -5 -3 -10 -1 -10 4 0 6 5 11 10 11 6 0 10 -2 10
-4z m2000 -11 c7 -8 8 -15 2 -15 -5 0 -15 7 -22 15 -7 8 -8 15 -2 15 5 0 15
-7 22 -15z m76 -62 c21 -28 16 -36 -10 -16 -13 10 -22 21 -19 26 7 11 15 8 29
-10z m-3083 -66 c-17 -10 -26 -4 -29 21 -4 27 19 34 33 9 9 -18 9 -24 -4 -30z
m2852 -7 c3 -5 1 -10 -4 -10 -6 0 -11 5 -11 10 0 6 2 10 4 10 3 0 8 -4 11 -10z
m-3075 -39 c0 -5 -7 -12 -16 -15 -24 -9 -28 -7 -14 9 14 17 30 20 30 6z
m-1930 -9 c0 -13 -12 -22 -22 -16 -10 6 -1 24 13 24 5 0 9 -4 9 -8z m5001 -8
c10 -13 10 -17 -2 -24 -13 -9 -26 6 -28 33 -2 12 16 8 30 -9z m-3011 -3 c-8
-5 -26 -12 -40 -16 -24 -7 -24 -7 -5 9 11 8 29 15 40 15 16 0 17 -1 5 -8z m17
-27 c-3 -3 -12 -4 -19 -1 -8 3 -5 6 6 6 11 1 17 -2 13 -5z m-100 -20 c-3 -3
-12 -4 -19 -1 -8 3 -5 6 6 6 11 1 17 -2 13 -5z m-1154 -19 c-3 -9 -8 -14 -10
-11 -3 3 -2 9 2 15 9 16 15 13 8 -4z m4273 -22 c3 -21 13 -44 22 -50 9 -7 11
-13 5 -13 -6 0 -9 -9 -6 -20 4 -14 0 -20 -11 -20 -16 0 -22 31 -17 87 1 12 -3
24 -9 28 -13 8 -13 25 0 25 5 0 12 -17 16 -37z m-4536 21 c0 -11 -29 -34 -44
-34 -8 0 -18 -4 -21 -10 -10 -17 -25 -11 -19 8 4 12 0 10 -15 -7 -12 -13 -24
-21 -28 -17 -11 10 28 46 61 55 37 11 66 13 66 5z m-354 -56 c-3 -18 -12 -36
-19 -40 -7 -5 1 -8 20 -8 17 0 34 4 37 9 9 15 45 1 39 -15 -3 -9 2 -14 13 -14
15 0 14 -3 -6 -17 -14 -9 -28 -21 -32 -27 -3 -5 -13 -2 -24 8 -11 12 -25 15
-41 11 -15 -3 -22 -2 -19 4 3 5 2 11 -4 13 -8 3 10 74 26 100 11 18 16 6 10
-24z m4921 10 c-3 -8 -6 -5 -6 6 -1 11 2 17 5 13 3 -3 4 -12 1 -19z m-3107 -8
c0 -5 -2 -10 -4 -10 -3 0 -8 5 -11 10 -3 6 -1 10 4 10 6 0 11 -4 11 -10z
m1730 2 c0 -14 -103 -69 -121 -65 -11 3 -16 10 -13 15 3 5 12 7 19 4 7 -2 30
8 52 24 37 29 63 38 63 22z m-3064 -57 c-28 -37 -54 -49 -37 -17 14 26 52 64
58 58 3 -3 -6 -21 -21 -41z m1229 15 c3 -5 1 -10 -4 -10 -6 0 -11 5 -11 10 0
6 2 10 4 10 3 0 8 -4 11 -10z m-1479 -15 c-11 -8 -25 -15 -30 -15 -6 0 -2 7 8
15 11 8 25 15 30 15 6 0 2 -7 -8 -15z m3069 -15 c-20 -22 -31 -20 -22 5 4 8
14 15 23 15 16 0 16 -2 -1 -20z m515 11 c0 -5 -7 -12 -16 -15 -22 -9 -24 -8
-24 9 0 8 9 15 20 15 11 0 20 -4 20 -9z m1130 -10 c0 -6 -4 -13 -10 -16 -5 -3
-10 1 -10 9 0 9 5 16 10 16 6 0 10 -4 10 -9z m-1511 -8 c0 -11 -119 -96 -125
-90 -8 8 46 55 78 68 15 6 28 15 28 20 0 5 5 9 10 9 6 0 10 -3 9 -7z m-1786
-10 c-7 -2 -19 -2 -25 0 -7 3 -2 5 12 5 14 0 19 -2 13 -5z m3275 -21 c2 -7 -2
-10 -12 -6 -9 3 -16 11 -16 16 0 13 23 5 28 -10z m-4993 -22 c-32 -21 -55 -26
-55 -11 0 4 15 13 33 19 49 16 55 14 22 -8z m-175 -54 c0 -3 -4 -8 -10 -11 -5
-3 -10 -1 -10 4 0 6 5 11 10 11 6 0 10 -2 10 -4z m2390 -26 c0 -5 -4 -10 -9
-10 -6 0 -13 5 -16 10 -3 6 1 10 9 10 9 0 16 -4 16 -10z m2810 -95 c0 -5 -5
-3 -10 5 -5 8 -10 20 -10 25 0 6 5 3 10 -5 5 -8 10 -19 10 -25z m300 -5 c0
-15 -5 -12 -26 11 -19 22 -19 22 4 10 12 -6 22 -16 22 -21z m-2117 -37 c-7 -2
-21 -2 -30 0 -10 3 -4 5 12 5 17 0 24 -2 18 -5z m1845 -38 c-3 -3 -9 2 -12 12
-6 14 -5 15 5 6 7 -7 10 -15 7 -18z m291 -15 c0 -10 -3 -8 -9 5 -12 27 -12 43
0 25 5 -8 9 -22 9 -30z m-2249 6 c0 -3 -4 -8 -10 -11 -5 -3 -10 -1 -10 4 0 6
5 11 10 11 6 0 10 -2 10 -4z m-1940 -26 c0 -5 -5 -10 -11 -10 -5 0 -7 5 -4 10
3 6 8 10 11 10 2 0 4 -4 4 -10z m-60 -25 c-7 -8 -18 -15 -24 -15 -6 0 -2 7 8
15 25 19 32 19 16 0z m1680 -25 c-6 -11 -18 -20 -27 -20 -14 0 -14 2 2 20 10
11 22 20 27 20 5 0 4 -9 -2 -20z m2630 -11 c0 -6 -4 -7 -10 -4 -5 3 -10 11
-10 16 0 6 5 7 10 4 6 -3 10 -11 10 -16z m-4340 2 c0 -5 -7 -11 -15 -15 -15
-5 -20 5 -8 17 9 10 23 9 23 -2z m-1193 -33 c-3 -8 -6 -5 -6 6 -1 11 2 17 5
13 3 -3 4 -12 1 -19z m5466 -23 c9 -18 9 -19 -6 -6 -10 7 -17 23 -16 35 0 14
2 16 6 6 3 -8 10 -24 16 -35z m-2683 26 c0 -13 -26 -32 -33 -24 -8 7 11 33 24
33 5 0 9 -4 9 -9z m319 -57 c-16 -17 -23 -35 -21 -53 3 -23 -1 -30 -22 -35
-14 -3 -26 -11 -26 -17 0 -6 4 -7 10 -4 6 4 7 -1 3 -11 -6 -15 -8 -15 -23 4
-10 12 -20 19 -23 15 -3 -3 0 -12 8 -20 8 -8 14 -24 14 -36 -2 -22 -2 -22 -6
1 -5 24 -5 24 -27 16 -21 -8 -21 -34 0 -34 8 0 12 -5 9 -10 -5 -8 -11 -8 -20
0 -9 8 -15 8 -20 0 -3 -5 -1 -10 4 -10 6 0 11 -7 11 -15 0 -20 13 -19 34 4 21
23 66 17 66 -10 0 -12 -7 -19 -20 -19 -27 0 -65 -41 -99 -108 -11 -22 -34 -55
-51 -73 -16 -19 -30 -38 -30 -44 0 -5 -11 -19 -23 -30 -23 -19 -23 -21 -8 -60
8 -22 21 -45 27 -52 17 -17 25 -88 14 -117 -5 -14 -7 -41 -5 -58 4 -27 3 -29
-4 -13 -6 11 -8 49 -5 85 5 57 2 71 -21 110 -53 93 -52 86 -17 154 18 34 32
68 32 76 0 14 23 64 113 248 32 66 66 98 68 65 1 -15 2 -15 6 2 5 21 65 86 72
79 3 -2 -6 -16 -20 -30z m2489 -34 c7 -18 7 -32 1 -35 -5 -4 -9 3 -9 15 0 12
-5 31 -11 42 -6 12 -7 18 -1 14 6 -3 15 -19 20 -36z m-278 2 c0 -15 -2 -15
-10 -2 -13 20 -13 33 0 25 6 -3 10 -14 10 -23z m-5419 -21 c-12 -12 -27 -21
-33 -21 -7 0 1 11 17 24 35 29 46 27 16 -3z m4190 -54 c-13 -13 -15 1 -4 30 7
17 8 17 11 -1 2 -10 -1 -23 -7 -29z m1523 -23 c3 -8 2 -12 -4 -9 -6 3 -10 10
-10 16 0 14 7 11 14 -7z m-2554 -44 c0 -5 -5 -10 -11 -10 -5 0 -7 5 -4 10 3 6
8 10 11 10 2 0 4 -4 4 -10z m-2087 -7 c-7 -2 -19 -2 -25 0 -7 3 -2 5 12 5 14
0 19 -2 13 -5z m4435 -38 c-3 -3 -9 2 -12 12 -6 14 -5 15 5 6 7 -7 10 -15 7
-18z m-5548 -5 c0 -5 -5 -10 -11 -10 -5 0 -7 5 -4 10 3 6 8 10 11 10 2 0 4 -4
4 -10z m5630 -147 c0 -15 -2 -15 -24 -7 -23 9 -20 23 4 21 11 -1 20 -7 20 -14z
m-3790 -33 c-19 -12 -30 -12 -30 -1 0 10 31 20 40 14 2 -2 -2 -8 -10 -13z
m-903 4 c-3 -3 -12 -4 -19 -1 -8 3 -5 6 6 6 11 1 17 -2 13 -5z m838 -12 c-3
-3 -11 0 -18 7 -9 10 -8 11 6 5 10 -3 15 -9 12 -12z m22 -38 c-3 -3 -12 -4
-19 -1 -8 3 -5 6 6 6 11 1 17 -2 13 -5z m-10 -30 c-3 -3 -12 -4 -19 -1 -8 3
-5 6 6 6 11 1 17 -2 13 -5z m1249 -38 c8 -8 14 -23 14 -34 0 -25 -26 -36 -34
-16 -9 24 -7 27 9 14 9 -8 15 -8 15 -2 0 6 -7 17 -15 26 -15 15 -19 26 -9 26
3 0 12 -6 20 -14z m2652 -58 c6 -16 10 -28 7 -28 -5 0 -35 56 -35 67 0 12 15
-10 28 -39z m-4838 -68 c-8 -5 -19 -10 -25 -10 -5 0 -3 5 5 10 8 5 20 10 25
10 6 0 3 -5 -5 -10z m900 0 c0 -5 -4 -10 -10 -10 -5 0 -10 5 -10 10 0 6 5 10
10 10 6 0 10 -4 10 -10z m3969 -30 c0 -10 -3 -8 -9 5 -12 27 -12 43 0 25 5 -8
9 -22 9 -30z m-2398 -27 c-12 -20 -14 -14 -5 12 4 9 9 14 11 11 3 -2 0 -13 -6
-23z m-1691 -63 c0 -5 -5 -10 -11 -10 -5 0 -7 5 -4 10 3 6 8 10 11 10 2 0 4
-4 4 -10z m3841 -63 c-18 -18 -25 1 -11 30 l14 28 4 -24 c2 -13 -1 -28 -7 -34z
m-2731 -61 c0 -3 -4 -8 -10 -11 -5 -3 -10 -1 -10 4 0 6 5 11 10 11 6 0 10 -2
10 -4z m-2622 -23 c19 0 38 -6 42 -13 17 -27 -3 -32 -62 -15 -20 5 -28 14 -28
29 0 12 3 16 8 10 4 -6 22 -11 40 -11z m1334 -60 c-2 -24 -9 -43 -14 -43 -6 0
-8 13 -4 31 3 17 6 41 6 52 0 12 4 17 9 12 4 -6 6 -29 3 -52z m1173 17 c3 -5
-1 -10 -9 -10 -9 0 -16 5 -16 10 0 6 4 10 9 10 6 0 13 -4 16 -10z m-2954 -70
c20 -11 26 -30 8 -30 -18 0 -34 -24 -34 -50 0 -19 -6 -26 -23 -28 -16 -3 -22
-8 -18 -19 3 -8 6 -19 6 -24 0 -5 7 -9 15 -9 8 0 15 -4 15 -10 0 -5 -4 -10
-10 -10 -5 0 -7 -7 -3 -16 4 -12 2 -15 -8 -12 -8 3 -13 12 -12 19 2 9 -6 15
-18 16 -26 2 -49 21 -49 41 0 8 -8 20 -17 27 -15 11 -15 15 -3 30 13 16 15 16
27 -1 18 -24 47 -7 51 30 3 20 9 26 27 26 18 0 23 4 19 15 -7 18 0 19 27 5z
m-267 -36 c-6 -25 10 -34 20 -11 3 6 4 1 3 -13 -2 -20 -7 -24 -24 -22 -17 2
-21 -1 -17 -11 3 -8 1 -18 -5 -22 -6 -3 -11 1 -11 9 0 26 -34 18 -47 -11 -26
-59 -33 -84 -23 -78 17 10 11 -6 -7 -24 -25 -23 -44 -80 -33 -100 13 -25 -7
-54 -28 -42 -15 8 -17 19 -12 71 3 34 11 64 17 68 15 9 37 62 34 81 -1 7 1 20
5 30 4 9 8 18 8 21 3 13 33 49 38 45 3 -3 20 5 39 18 40 28 51 25 43 -9z
m2064 17 c3 -8 -1 -12 -9 -9 -7 2 -15 10 -17 17 -3 8 1 12 9 9 7 -2 15 -10 17
-17z m18 -41 c0 -11 -4 -20 -8 -20 -4 0 -8 9 -8 20 0 11 4 20 8 20 4 0 8 -9 8
-20z m-2001 0 c-3 -5 -10 -10 -16 -10 -5 0 -9 5 -9 10 0 6 7 10 16 10 8 0 12
-4 9 -10z m2364 -46 c2 -2 -10 -4 -27 -4 -18 0 -32 5 -32 10 0 9 47 4 59 -6z
m-2479 -74 c0 -5 -9 -10 -20 -10 -11 0 -20 5 -20 10 0 6 9 10 20 10 11 0 20
-4 20 -10z m2172 -30 c4 0 8 -5 8 -12 0 -6 -9 -3 -20 7 -11 10 -20 25 -19 34
0 11 4 9 11 -6 6 -13 15 -23 20 -23z m-1331 -74 c-6 -8 -11 -18 -10 -22 1 -5
-2 -19 -6 -31 -8 -26 -25 -31 -25 -8 0 8 -4 15 -10 15 -5 0 -10 5 -10 11 0 5
5 7 10 4 6 -3 10 -1 10 4 0 15 40 54 47 47 3 -3 1 -12 -6 -20z m-66 -5 c-3 -6
-11 -11 -17 -11 -6 0 -6 6 2 15 14 17 26 13 15 -4z m85 -45 c0 -3 -4 -8 -10
-11 -5 -3 -10 -1 -10 4 0 6 5 11 10 11 6 0 10 -2 10 -4z m36 -27 c8 -14 -10
-32 -36 -36 -14 -2 -20 3 -20 16 0 27 42 42 56 20z m-568 -8 c11 -7 10 -11 -3
-24 -17 -17 -45 -13 -45 7 0 25 23 33 48 17z m469 -43 c-3 -7 -5 -2 -5 12 0
14 2 19 5 13 2 -7 2 -19 0 -25z m-537 -7 c0 -6 -4 -13 -10 -16 -5 -3 -10 1
-10 9 0 9 5 16 10 16 6 0 10 -4 10 -9z m166 -37 c14 -34 14 -37 -5 -51 -15
-10 -21 -26 -22 -51 0 -30 -2 -33 -9 -17 -7 17 -9 17 -9 3 -1 -10 -5 -18 -11
-18 -14 0 -13 16 4 48 11 23 14 50 7 84 0 3 -10 4 -21 1 -19 -5 -19 -7 -5 -23
23 -25 20 -43 -5 -28 -11 7 -20 20 -20 28 0 22 42 56 73 59 4 1 15 -15 23 -35z
m1439 16 c8 -13 -5 -13 -25 0 -13 8 -13 10 2 10 9 0 20 -4 23 -10z m76 -37
c13 -17 13 -17 -6 -3 -11 8 -22 16 -24 17 -2 2 0 3 6 3 6 0 17 -8 24 -17z
m-1814 -19 c-3 -3 -12 -4 -19 -1 -8 3 -5 6 6 6 11 1 17 -2 13 -5z m1969 -27
c14 -13 -10 -27 -47 -27 -22 0 -38 4 -34 9 3 5 1 12 -5 16 -5 3 -10 10 -10 14
0 8 86 -2 96 -12z m124 3 c8 -5 12 -10 10 -12 -47 -30 -80 -37 -60 -13 9 11 9
15 1 15 -7 0 -9 5 -6 10 8 12 35 13 55 0z m-1760 -24 c0 -2 -9 -6 -20 -9 -11
-3 -20 -1 -20 4 0 5 9 9 20 9 11 0 20 -2 20 -4z m1840 -4 c0 -12 77 -14 85 -2
8 13 25 3 25 -14 0 -7 -11 -25 -25 -40 -14 -15 -22 -32 -19 -38 4 -6 10 -5 15
3 8 12 11 12 18 0 7 -11 13 -12 23 -3 8 6 29 10 47 7 36 -4 55 -15 28 -15 -9
0 -17 -7 -17 -16 0 -21 -29 -43 -57 -44 -12 0 -25 -4 -28 -10 -3 -5 -17 -10
-31 -10 -14 0 -23 -5 -21 -12 1 -8 -12 -14 -35 -16 -21 -2 -38 -7 -38 -13 0
-5 -7 -9 -15 -9 -18 0 -20 16 -2 23 7 3 3 8 -11 14 -23 9 -22 10 19 29 24 10
48 18 52 16 15 -4 36 32 27 43 -11 14 -116 11 -133 -3 -9 -8 -16 -6 -24 7 -15
23 -64 25 -61 3 3 -18 -53 -34 -89 -26 -21 6 -39 32 -28 42 4 5 89 19 143 24
6 1 10 4 7 6 -2 3 7 15 21 27 22 19 32 21 58 14 24 -7 33 -6 41 6 11 16 25 20
25 7z m-173 -8 c-3 -3 -12 -4 -19 -1 -8 3 -5 6 6 6 11 1 17 -2 13 -5z m-62
-14 c-3 -5 -14 -10 -23 -9 -14 0 -13 2 3 9 27 11 27 11 20 0z m410 0 c3 -5 -1
-10 -10 -10 -9 0 -13 5 -10 10 3 6 8 10 10 10 2 0 7 -4 10 -10z m175 -21 c0
-15 -26 -39 -43 -39 -21 0 -42 27 -25 32 7 3 19 -2 25 -11 11 -14 13 -13 19 7
6 22 24 31 24 11z m-1645 -9 c3 -5 1 -10 -4 -10 -6 0 -11 5 -11 10 0 6 2 10 4
10 3 0 8 -4 11 -10z m1492 4 c-3 -3 -12 -4 -19 -1 -8 3 -5 6 6 6 11 1 17 -2
13 -5z m-2083 -10 c24 -9 19 -31 -8 -36 -17 -4 -23 -1 -19 9 3 7 10 13 17 13
6 0 4 5 -4 10 -17 11 -10 13 14 4z m66 -35 c0 -5 -7 -9 -15 -9 -8 0 -15 7 -15
15 0 9 6 12 15 9 8 -4 15 -10 15 -15z m2100 13 c0 -5 -13 -18 -30 -30 -24 -18
-30 -20 -30 -7 0 8 7 15 16 15 10 0 14 6 10 15 -4 10 1 15 14 15 11 0 20 -4
20 -8z m-597 -23 c-5 -17 -11 -20 -34 -15 -16 3 -29 1 -29 -4 0 -6 5 -10 12
-10 9 0 9 -3 0 -12 -8 -8 -17 -8 -34 0 -18 8 -19 11 -5 11 9 1 17 8 17 17 0
12 7 15 26 11 16 -3 28 0 31 9 8 22 22 16 16 -7z m-1673 -14 c0 -8 -9 -15 -20
-15 -25 0 -26 17 -2 23 9 3 18 5 20 6 1 0 2 -6 2 -14z m1870 -6 c0 -5 -4 -9
-10 -9 -5 0 -10 7 -10 16 0 8 5 12 10 9 6 -3 10 -10 10 -16z m427 15 c-3 -3
-12 -4 -19 -1 -8 3 -5 6 6 6 11 1 17 -2 13 -5z m-747 -14 c0 -5 -5 -10 -11
-10 -5 0 -8 -4 -4 -9 3 -6 -4 -15 -16 -21 -26 -15 -35 -7 -14 13 8 9 15 20 15
26 0 6 7 11 15 11 8 0 15 -4 15 -10z m-1482 -20 c12 0 7 -6 -12 -19 -38 -25
-51 -18 -29 16 9 14 19 21 21 14 2 -6 11 -11 20 -11z m1380 -6 c12 -4 22 -10
22 -15 0 -9 -50 -2 -85 12 -17 6 -15 8 10 8 17 1 40 -2 53 -5z m-203 -34 c3
-5 -3 -10 -15 -10 -12 0 -18 5 -15 10 3 6 10 10 15 10 5 0 12 -4 15 -10z
m1005 -10 c0 -14 40 -22 53 -12 7 5 28 12 47 15 19 3 44 8 55 12 20 7 20 6 1
-9 -11 -9 -18 -16 -15 -17 24 -6 79 -4 79 3 0 4 14 8 30 8 17 0 30 -4 30 -10
0 -5 -9 -10 -20 -10 -11 0 -20 -7 -20 -15 0 -12 -4 -13 -19 -6 -13 7 -24 6
-37 -4 -11 -8 -27 -15 -36 -15 -10 0 -18 -4 -18 -10 0 -16 -25 -11 -53 10 -14
11 -33 20 -42 20 -15 0 -16 -2 -4 -17 13 -15 11 -16 -13 -11 -15 3 -26 2 -23
-1 2 -4 0 -13 -6 -21 -6 -11 -9 -11 -9 -2 0 10 -16 11 -65 6 -57 -6 -65 -5
-59 9 3 9 18 17 32 19 20 2 32 13 45 39 14 30 21 35 42 31 14 -2 25 -8 25 -12z
m-360 -9 c0 -22 -13 -41 -29 -41 -25 0 -32 10 -20 31 10 19 49 27 49 10z
m-1885 -11 c-3 -5 -14 -10 -23 -9 -14 0 -13 2 3 9 27 11 27 11 20 0z m260 0
c-3 -5 -1 -10 6 -10 7 0 10 -2 7 -5 -8 -9 -38 6 -32 16 3 5 10 9 15 9 6 0 7
-4 4 -10z m-45 -50 c0 -5 -4 -10 -10 -10 -5 0 -10 5 -10 10 0 6 5 10 10 10 6
0 10 -4 10 -10z m-30 -40 c0 -5 -4 -10 -10 -10 -5 0 -10 5 -10 10 0 6 5 10 10
10 6 0 10 -4 10 -10z m-435 -560 c19 -36 13 -50 -16 -43 -15 4 -19 11 -15 27
3 11 6 27 6 34 0 20 8 14 25 -18z m-51 -91 c-6 -11 -24 -2 -24 11 0 5 7 7 15
4 8 -4 12 -10 9 -15z m70 -235 c20 -19 20 -24 1 -24 -8 0 -15 6 -15 14 0 8 -6
17 -12 19 -9 4 -10 6 -1 6 6 1 19 -6 27 -15z m56 -64 c8 -16 8 -18 -4 -14 -17
6 -30 34 -16 34 5 0 14 -9 20 -20z m-114 -68 c-16 -2 -32 0 -37 5 -5 5 7 7 29
4 34 -5 35 -6 8 -9z m59 -22 c3 -5 2 -10 -4 -10 -5 0 -13 5 -16 10 -3 6 -2 10
4 10 5 0 13 -4 16 -10z m151 -155 c20 -19 4 -20 -22 0 -12 9 -14 14 -6 15 7 0
20 -7 28 -15z m62 -44 c3 -8 -1 -12 -9 -9 -7 2 -15 10 -17 17 -3 8 1 12 9 9 7
-2 15 -10 17 -17z m132 -107 c0 -8 5 -14 10 -14 6 0 10 -5 10 -12 0 -6 -9 -3
-20 7 -20 18 -28 51 -10 40 6 -3 10 -13 10 -21z m1060 -14 c0 -5 -5 -10 -11
-10 -5 0 -7 5 -4 10 3 6 8 10 11 10 2 0 4 -4 4 -10z m-945 -60 c3 -5 1 -10 -4
-10 -6 0 -11 5 -11 10 0 6 2 10 4 10 3 0 8 -4 11 -10z m-795 -30 c0 -5 -2 -10
-4 -10 -3 0 -8 5 -11 10 -3 6 -1 10 4 10 6 0 11 -4 11 -10z m190 -65 c20 -24
6 -28 -15 -5 -10 11 -13 20 -8 20 6 0 16 -7 23 -15z m670 -226 c0 -5 -4 -9
-10 -9 -5 0 -10 7 -10 16 0 8 5 12 10 9 6 -3 10 -10 10 -16z m50 -151 c0 -5
-4 -8 -9 -8 -10 0 -41 72 -41 93 1 12 49 -71 50 -85z m-345 51 c11 -16 1 -19
-13 -3 -7 8 -8 14 -3 14 5 0 13 -5 16 -11z m512 -41 c-3 -8 -6 -5 -6 6 -1 11
2 17 5 13 3 -3 4 -12 1 -19z m-117 -29 c0 -14 -17 -10 -23 5 -4 10 -1 13 9 9
7 -3 14 -9 14 -14z m-130 -45 c5 -13 47 -82 93 -152 47 -70 94 -147 105 -172
11 -25 32 -57 46 -72 36 -38 32 -58 -4 -23 -16 16 -30 35 -30 42 0 7 -4 13 -8
13 -4 0 -18 19 -30 43 -41 78 -87 153 -123 204 -30 41 -79 134 -79 150 0 12
22 -12 30 -33z m91 -36 c11 -21 11 -22 -4 -9 -10 7 -17 17 -17 22 0 15 9 10
21 -13z m-27 -3 c3 -8 1 -15 -4 -15 -6 0 -10 7 -10 15 0 8 2 15 4 15 2 0 6 -7
10 -15z m1066 -95 c-14 -26 -25 -32 -73 -35 -23 -2 -42 -4 -42 -5 0 -1 -10 -3
-22 -4 -18 -2 -23 2 -23 20 0 32 18 39 100 41 65 1 69 0 60 -17z m-10 -50 c0
-5 -4 -10 -10 -10 -5 0 -10 5 -10 10 0 6 5 10 10 10 6 0 10 -4 10 -10z"/>
<path d="M5615 8220 c-3 -5 1 -10 9 -10 9 0 16 5 16 10 0 6 -4 10 -9 10 -6 0
-13 -4 -16 -10z"/>
<path d="M5105 7830 c3 -5 12 -7 20 -3 21 7 19 13 -6 13 -11 0 -18 -4 -14 -10z"/>
<path d="M4990 7615 c-21 -25 -1 -31 23 -7 17 18 18 22 5 22 -8 0 -21 -7 -28
-15z"/>
<path d="M5228 7578 c9 -9 15 -9 24 0 9 9 7 12 -12 12 -19 0 -21 -3 -12 -12z"/>
<path d="M4973 7543 c-7 -2 -13 -9 -13 -14 0 -5 -12 -28 -26 -50 -31 -49 -24
-64 11 -23 59 68 71 105 28 87z"/>
<path d="M4810 7479 c0 -5 5 -7 10 -4 6 3 10 8 10 11 0 2 -4 4 -10 4 -5 0 -10
-5 -10 -11z"/>
<path d="M4750 7415 c-24 -20 -51 -40 -61 -45 -29 -16 -62 -78 -55 -105 7 -27
17 -30 47 -15 25 14 24 30 -2 30 -21 0 -21 1 4 20 13 11 27 30 31 42 3 13 19
32 36 43 31 20 56 52 47 61 -2 3 -24 -11 -47 -31z m-83 -151 c-3 -3 -12 -4
-19 -1 -8 3 -5 6 6 6 11 1 17 -2 13 -5z"/>
<path d="M4792 7405 c-26 -29 -27 -36 -8 -29 17 7 50 54 38 54 -5 0 -18 -11
-30 -25z"/>
<path d="M4719 7293 c-13 -16 -12 -17 4 -4 9 7 17 15 17 17 0 8 -8 3 -21 -13z"/>
<path d="M4587 7193 c-10 -9 -9 -23 2 -23 5 0 11 7 15 15 5 15 -5 20 -17 8z"/>
<path d="M4406 6954 c-18 -17 -22 -39 -6 -29 11 7 33 45 26 45 -2 0 -12 -7
-20 -16z"/>
<path d="M4290 6860 c0 -5 5 -10 10 -10 6 0 10 5 10 10 0 6 -4 10 -10 10 -5 0
-10 -4 -10 -10z"/>
<path d="M6907 7513 c-4 -3 -7 -11 -7 -17 0 -6 5 -5 12 2 6 6 9 14 7 17 -3 3
-9 2 -12 -2z"/>
<path d="M3755 7350 c-3 -6 1 -7 9 -4 18 7 21 14 7 14 -6 0 -13 -4 -16 -10z"/>
<path d="M6297 5813 c-4 -3 -7 -11 -7 -17 0 -6 5 -5 12 2 6 6 9 14 7 17 -3 3
-9 2 -12 -2z"/>
<path d="M4770 4420 c0 -5 5 -10 10 -10 6 0 10 5 10 10 0 6 -4 10 -10 10 -5 0
-10 -4 -10 -10z"/>
<path d="M4903 4413 c0 -17 15 -16 32 1 12 12 11 14 -9 12 -12 0 -23 -7 -23
-13z"/>
<path d="M4861 8689 c-39 -16 -18 -19 24 -4 22 8 31 14 20 14 -11 0 -31 -5
-44 -10z"/>
<path d="M4755 8660 c-13 -6 -5 -7 25 -3 25 3 47 7 49 9 9 8 -55 2 -74 -6z"/>
<path d="M4840 8609 c0 -4 -32 -13 -70 -20 -81 -14 -94 -24 -48 -34 18 -4 40
-13 50 -19 13 -8 23 -8 37 1 15 9 21 9 23 1 2 -6 10 -8 16 -4 25 15 11 23 -33
20 -26 -3 -45 0 -45 6 0 5 7 10 15 10 8 0 15 5 15 10 0 6 26 11 58 11 31 1 49
3 40 6 -10 2 -18 8 -18 12 0 4 -9 7 -20 7 -11 0 -20 -3 -20 -7z"/>
<path d="M4595 8510 c-3 -6 1 -7 9 -4 18 7 21 14 7 14 -6 0 -13 -4 -16 -10z"/>
<path d="M4700 8480 c-17 -5 -19 -8 -7 -9 24 -1 21 -21 -3 -21 -12 0 -38 -9
-60 -20 -24 -12 -61 -21 -97 -21 -32 -1 -48 -4 -35 -6 12 -2 20 -9 17 -14 -4
-5 1 -9 9 -9 9 0 16 -4 16 -10 0 -9 -50 -34 -150 -75 -31 -12 -76 -36 -100
-54 -24 -17 -53 -31 -65 -29 -27 3 -45 -9 -45 -32 0 -25 -19 -30 -53 -13 -30
15 -33 13 -86 -37 -14 -14 -52 -38 -83 -54 -32 -15 -58 -31 -58 -35 0 -10 46
-31 66 -31 8 0 33 17 57 39 52 48 120 86 126 70 2 -6 -2 -15 -9 -19 -15 -10
-49 -106 -50 -142 0 -15 -4 -30 -10 -33 -16 -10 -12 -54 8 -74 13 -15 30 -19
77 -17 44 2 63 -2 72 -13 11 -14 12 -14 13 2 0 10 7 20 15 23 8 4 15 14 15 23
0 13 -2 13 -9 2 -5 -7 -14 -10 -20 -7 -6 4 -11 1 -11 -6 0 -10 -2 -10 -9 1 -9
14 5 60 23 72 5 4 6 15 2 24 -4 13 -2 16 9 11 9 -3 15 0 15 9 0 8 -4 15 -10
15 -15 0 61 75 97 95 19 11 28 22 22 26 -14 8 65 36 161 57 69 16 75 19 72 40
-3 18 1 23 15 22 38 -4 44 0 41 28 -2 15 -8 26 -15 25 -14 -3 -18 23 -5 29 16
6 24 58 10 59 -22 1 -50 7 -54 12 -7 7 61 47 79 47 8 0 17 7 21 15 3 8 11 15
17 15 8 0 8 -4 -1 -15 -18 -21 0 -18 30 5 16 13 18 18 7 14 -12 -4 -17 -2 -15
7 4 16 -19 20 -52 9z m-50 -220 c-19 -13 -30 -13 -30 0 0 6 10 10 23 10 18 0
19 -2 7 -10z"/>
<path d="M5418 8433 c7 -3 16 -2 19 1 4 3 -2 6 -13 5 -11 0 -14 -3 -6 -6z"/>
<path d="M4722 8411 c-11 -6 -10 -9 5 -13 10 -3 24 1 31 9 10 10 9 13 -5 13
-10 0 -24 -4 -31 -9z"/>
<path d="M4003 8383 c-7 -2 -13 -8 -13 -13 0 -10 38 -1 46 11 6 10 -13 11 -33
2z"/>
<path d="M4317 8353 c-10 -10 -8 -51 3 -58 13 -8 52 14 48 27 -6 16 -43 39
-51 31z"/>
<path d="M6995 8350 c3 -5 13 -10 21 -10 8 0 12 5 9 10 -3 6 -13 10 -21 10 -8
0 -12 -4 -9 -10z"/>
<path d="M3640 8298 c-53 -15 -57 -26 -5 -14 25 6 45 14 45 18 0 5 -1 8 -2 7
-2 0 -19 -5 -38 -11z"/>
<path d="M3550 8260 c0 -5 7 -7 15 -4 8 4 15 8 15 10 0 2 -7 4 -15 4 -8 0 -15
-4 -15 -10z"/>
<path d="M4030 8253 c0 -2 7 -11 15 -19 8 -9 15 -11 15 -5 0 6 1 14 3 18 1 3
-6 7 -15 9 -10 1 -18 0 -18 -3z"/>
<path d="M3518 8243 c7 -3 16 -2 19 1 4 3 -2 6 -13 5 -11 0 -14 -3 -6 -6z"/>
<path d="M6520 8200 c0 -13 28 -25 38 -16 3 4 0 11 -8 16 -20 13 -30 12 -30 0z"/>
<path d="M6602 8188 c3 -7 13 -15 22 -16 12 -3 17 1 14 10 -3 7 -13 15 -22 16
-12 3 -17 -1 -14 -10z"/>
<path d="M4578 8103 c7 -3 16 -2 19 1 4 3 -2 6 -13 5 -11 0 -14 -3 -6 -6z"/>
<path d="M4494 8093 c15 -4 16 -7 5 -14 -10 -6 -5 -9 16 -9 21 0 26 3 16 9
-11 7 -9 10 10 14 13 2 4 4 -21 4 -25 1 -36 -2 -26 -4z"/>
<path d="M3557 7933 c-4 -3 -7 -15 -7 -25 0 -10 -6 -18 -12 -18 -22 0 -41 -17
-34 -29 5 -7 19 -5 46 9 22 11 50 22 62 23 14 3 24 12 26 25 4 26 -10 28 -32
7 -8 -8 -23 -15 -33 -14 -10 0 -13 3 -5 6 6 2 12 9 12 14 0 11 -14 12 -23 2z"/>
<path d="M3117 7923 c-4 -3 -7 -11 -7 -17 0 -6 5 -5 12 2 6 6 9 14 7 17 -3 3
-9 2 -12 -2z"/>
<path d="M3390 7905 c-22 -13 -23 -14 -5 -14 11 0 36 7 55 14 l35 13 -30 1
c-16 0 -41 -6 -55 -14z"/>
<path d="M4610 7900 c0 -5 9 -10 21 -10 11 0 17 5 14 10 -3 6 -13 10 -21 10
-8 0 -14 -4 -14 -10z"/>
<path d="M3095 7860 c3 -5 8 -10 11 -10 2 0 4 5 4 10 0 6 -5 10 -11 10 -5 0
-7 -4 -4 -10z"/>
<path d="M3146 7803 c-6 -14 -5 -15 5 -6 7 7 10 15 7 18 -3 3 -9 -2 -12 -12z"/>
<path d="M3792 7761 c-31 -27 -17 -33 93 -39 106 -5 131 2 109 32 -11 16 -29
20 -96 23 -70 2 -87 0 -106 -16z"/>
<path d="M4680 7759 c0 -5 5 -7 10 -4 6 3 10 8 10 11 0 2 -4 4 -10 4 -5 0 -10
-5 -10 -11z"/>
<path d="M3440 7740 c-13 -12 -30 -18 -37 -15 -8 3 -11 0 -8 -6 4 -6 -1 -17
-11 -24 -24 -18 -6 -19 50 -4 59 16 89 38 75 55 -16 20 -42 17 -69 -6z"/>
<path d="M3675 7729 c-9 -13 -7 -15 28 -23 31 -7 30 7 -3 24 -13 7 -21 7 -25
-1z"/>
<path d="M3853 7683 c9 -2 23 -2 30 0 6 3 -1 5 -18 5 -16 0 -22 -2 -12 -5z"/>
<path d="M4057 7629 c7 -7 15 -10 18 -7 3 3 -2 9 -12 12 -14 6 -15 5 -6 -5z"/>
<path d="M3230 7555 c-23 -31 -39 -62 -37 -70 4 -8 -7 -15 -34 -19 -21 -3 -39
-11 -39 -16 0 -6 5 -10 11 -10 16 0 41 -29 34 -40 -4 -6 -15 -5 -30 2 -26 12
-47 1 -66 -33 -14 -26 5 -31 29 -8 16 14 22 16 22 6 0 -8 -9 -22 -20 -32 -20
-18 -27 -45 -12 -45 5 0 19 12 31 26 17 19 28 24 44 19 12 -3 27 -7 34 -7 28
-3 -1 -18 -33 -18 -22 0 -38 -6 -46 -19 -6 -10 -18 -17 -25 -14 -8 3 -13 -2
-13 -12 0 -14 -3 -15 -15 -5 -12 10 -15 9 -15 -4 0 -10 -4 -15 -9 -11 -5 3
-12 2 -15 -3 -3 -5 -38 -8 -79 -8 -56 1 -73 -2 -70 -12 3 -7 16 -15 29 -18 13
-3 24 -10 24 -14 0 -4 13 -13 29 -18 24 -8 32 -7 43 5 14 17 49 33 60 26 4 -2
-17 -29 -47 -60 -30 -30 -55 -60 -55 -65 0 -9 40 24 167 135 16 14 25 16 41 8
16 -8 25 -4 52 24 18 19 46 37 61 40 15 4 38 14 51 23 13 10 35 24 51 31 15 8
27 18 27 23 0 5 -4 6 -10 3 -5 -3 -10 -1 -10 6 0 7 -10 9 -25 7 -17 -4 -25 -1
-25 8 0 8 -7 14 -16 14 -14 0 -14 3 -4 15 7 8 9 15 4 15 -5 0 -2 5 6 11 13 9
13 10 0 7 -8 -2 -23 -21 -33 -41 -10 -20 -23 -37 -28 -37 -5 0 -9 -7 -9 -15 0
-19 -7 -19 -25 -1 -12 12 -12 16 -1 25 8 7 16 20 19 30 4 15 -2 20 -24 23 -16
3 -33 0 -39 -6 -5 -5 -10 -6 -10 -2 0 5 25 33 55 62 42 41 55 61 55 84 0 48
-17 44 -60 -15z m30 -231 c0 -3 -7 -12 -15 -21 -20 -19 -32 -10 -14 11 14 15
29 21 29 10z"/>
<path d="M3120 7524 c0 -9 5 -14 12 -12 18 6 21 28 4 28 -9 0 -16 -7 -16 -16z"/>
<path d="M3250 7469 c0 -5 5 -7 10 -4 6 3 10 8 10 11 0 2 -4 4 -10 4 -5 0 -10
-5 -10 -11z"/>
<path d="M2663 7428 c-13 -6 -23 -16 -23 -22 0 -6 5 -5 12 2 7 7 20 12 30 12
10 0 18 5 18 10 0 12 -8 12 -37 -2z"/>
<path d="M3923 7393 c9 -2 23 -2 30 0 6 3 -1 5 -18 5 -16 0 -22 -2 -12 -5z"/>
<path d="M2707 7373 c-14 -13 -6 -20 18 -15 14 2 28 8 31 13 6 10 -39 12 -49
2z"/>
<path d="M2848 7363 c6 -2 18 -2 25 0 6 3 1 5 -13 5 -14 0 -19 -2 -12 -5z"/>
<path d="M2916 7345 c-31 -48 -12 -63 23 -19 12 15 21 31 21 35 0 18 -28 8
-44 -16z"/>
<path d="M2781 7343 c-18 -19 -9 -26 14 -9 10 7 14 15 9 18 -5 3 -15 -1 -23
-9z"/>
<path d="M2670 7339 c0 -5 5 -7 10 -4 6 3 10 8 10 11 0 2 -4 4 -10 4 -5 0 -10
-5 -10 -11z"/>
<path d="M3022 7318 c-16 -16 -15 -25 4 -32 8 -3 12 -2 9 4 -3 6 -1 10 4 10 6
0 11 7 11 15 0 18 -12 19 -28 3z"/>
<path d="M2674 7291 c1 -21 4 -26 12 -20 7 5 10 19 7 29 -8 30 -20 24 -19 -9z"/>
<path d="M2957 7265 c3 -8 9 -12 14 -9 12 7 11 11 -5 17 -10 4 -13 1 -9 -8z"/>
<path d="M2630 7229 c0 -5 5 -7 10 -4 6 3 10 8 10 11 0 2 -4 4 -10 4 -5 0 -10
-5 -10 -11z"/>
<path d="M2783 7196 c-45 -22 -55 -36 -25 -36 18 1 80 46 72 53 -3 2 -24 -5
-47 -17z"/>
<path d="M2797 7121 c-2 -9 -22 -23 -44 -30 -22 -7 -45 -22 -51 -32 -11 -17
-9 -19 28 -19 22 0 40 4 40 9 0 5 20 20 44 32 47 23 51 44 11 51 -16 3 -25 0
-28 -11z"/>
<path d="M2310 6858 c0 -11 -4 -17 -9 -14 -5 3 -14 -1 -21 -9 -11 -13 -9 -15
9 -12 11 2 28 12 36 23 18 24 19 31 0 31 -8 0 -15 -9 -15 -19z"/>
<path d="M3310 6690 c0 -5 -9 -10 -20 -10 -11 0 -20 -4 -20 -8 0 -12 32 -11
48 1 14 11 16 27 2 27 -5 0 -10 -4 -10 -10z"/>
<path d="M2225 6540 c-3 -5 1 -10 9 -10 8 0 18 5 21 10 3 6 -1 10 -9 10 -8 0
-18 -4 -21 -10z"/>
<path d="M3745 6450 c-11 -5 -33 -14 -50 -21 -16 -7 -34 -12 -40 -11 -5 1 -18
-9 -27 -22 l-17 -24 39 19 c22 11 53 22 70 25 27 6 58 30 49 38 -2 2 -13 0
-24 -4z"/>
<path d="M3711 6396 c-8 -9 -11 -19 -7 -23 9 -9 29 13 24 27 -2 8 -8 7 -17 -4z"/>
<path d="M3590 6385 c0 -8 2 -15 4 -15 2 0 6 7 10 15 3 8 1 15 -4 15 -6 0 -10
-7 -10 -15z"/>
<path d="M3231 6330 c-5 -17 -7 -30 -3 -30 11 0 31 49 22 55 -4 3 -13 -9 -19
-25z"/>
<path d="M3550 6349 c0 -5 5 -7 10 -4 6 3 10 8 10 11 0 2 -4 4 -10 4 -5 0 -10
-5 -10 -11z"/>
<path d="M3592 6338 c-7 -9 -6 -17 3 -25 16 -15 52 8 41 25 -9 16 -31 15 -44
0z"/>
<path d="M3505 6310 c-3 -5 -1 -10 4 -10 6 0 11 5 11 10 0 6 -2 10 -4 10 -3 0
-8 -4 -11 -10z"/>
<path d="M3523 6290 l-11 -30 28 22 c34 27 37 38 12 38 -10 0 -22 -12 -29 -30z"/>
<path d="M3374 6284 c-18 -14 -18 -15 4 -4 12 6 22 13 22 15 0 8 -5 6 -26 -11z"/>
<path d="M3465 6260 c-3 -5 -2 -10 4 -10 5 0 13 5 16 10 3 6 2 10 -4 10 -5 0
-13 -4 -16 -10z"/>
<path d="M3200 6190 c0 -5 7 -7 15 -4 8 4 15 8 15 10 0 2 -7 4 -15 4 -8 0 -15
-4 -15 -10z"/>
<path d="M3282 6174 c-24 -16 -30 -37 -9 -28 11 4 42 44 34 44 -1 0 -13 -7
-25 -16z"/>
<path d="M1685 6159 c-4 -6 -5 -12 -2 -15 2 -3 7 2 10 11 7 17 1 20 -8 4z"/>
<path d="M3300 6140 c0 -5 5 -10 10 -10 6 0 10 5 10 10 0 6 -4 10 -10 10 -5 0
-10 -4 -10 -10z"/>
<path d="M3236 6131 c-4 -7 -5 -15 -2 -18 9 -9 19 4 14 18 -4 11 -6 11 -12 0z"/>
<path d="M1631 6049 c-6 -18 -11 -41 -10 -53 0 -17 3 -16 14 9 21 50 27 75 17
75 -6 0 -15 -14 -21 -31z"/>
<path d="M1561 5698 c0 -37 4 -70 9 -73 12 -7 12 43 1 100 -8 37 -9 35 -10
-27z"/>
<path d="M2237 5670 c3 -11 9 -22 13 -25 5 -3 6 4 3 15 -3 11 -9 22 -13 25 -5
3 -6 -4 -3 -15z"/>
<path d="M3000 5655 c-7 -9 -11 -18 -8 -20 3 -3 11 1 18 10 7 9 11 18 8 20 -3
3 -11 -1 -18 -10z"/>
<path d="M3010 5619 c0 -5 5 -7 10 -4 6 3 10 8 10 11 0 2 -4 4 -10 4 -5 0 -10
-5 -10 -11z"/>
<path d="M2206 5511 c-3 -5 0 -23 7 -40 12 -28 15 -30 32 -18 24 18 14 67 -15
67 -10 0 -21 -4 -24 -9z"/>
<path d="M2365 5470 c-3 -5 -1 -10 4 -10 6 0 11 5 11 10 0 6 -2 10 -4 10 -3 0
-8 -4 -11 -10z"/>
<path d="M2420 5454 c0 -8 5 -12 10 -9 6 3 10 10 10 16 0 5 -4 9 -10 9 -5 0
-10 -7 -10 -16z"/>
<path d="M2311 5448 c0 -7 4 -22 9 -33 7 -18 8 -19 15 -2 4 9 5 24 1 32 -7 18
-26 20 -25 3z"/>
<path d="M2525 5450 c-3 -5 -2 -10 4 -10 5 0 13 5 16 10 3 6 2 10 -4 10 -5 0
-13 -4 -16 -10z"/>
<path d="M2650 5420 c0 -11 2 -20 4 -20 2 0 6 9 9 20 3 11 1 20 -4 20 -5 0 -9
-9 -9 -20z"/>
<path d="M3040 5422 c0 -5 7 -9 15 -9 8 0 15 4 15 9 0 4 -7 8 -15 8 -8 0 -15
-4 -15 -8z"/>
<path d="M1652 5390 c0 -14 2 -19 5 -12 2 6 2 18 0 25 -3 6 -5 1 -5 -13z"/>
<path d="M2538 5393 c7 -3 16 -2 19 1 4 3 -2 6 -13 5 -11 0 -14 -3 -6 -6z"/>
<path d="M2913 5234 c-6 -13 -7 -24 -3 -24 9 0 25 39 18 45 -2 2 -8 -7 -15
-21z"/>
<path d="M3238 5253 c7 -3 16 -2 19 1 4 3 -2 6 -13 5 -11 0 -14 -3 -6 -6z"/>
<path d="M1906 5233 c-9 -10 -7 -35 3 -29 12 8 0 -46 -14 -60 -17 -17 -13 -67
6 -69 9 -2 16 2 17 9 15 124 12 172 -12 149z"/>
<path d="M2923 5183 c-15 -5 -17 -23 -4 -23 5 0 11 7 15 15 3 8 4 15 3 14 -1
0 -8 -3 -14 -6z"/>
<path d="M3198 5143 c7 -3 16 -2 19 1 4 3 -2 6 -13 5 -11 0 -14 -3 -6 -6z"/>
<path d="M1735 5130 c-3 -5 -1 -10 4 -10 6 0 11 5 11 10 0 6 -2 10 -4 10 -3 0
-8 -4 -11 -10z"/>
<path d="M1738 5068 c-2 -18 -11 -24 -38 -28 l-35 -6 33 -7 c17 -3 32 -11 32
-17 0 -6 -8 -9 -17 -6 -10 3 -25 1 -33 -4 -13 -8 -13 -10 2 -10 21 0 28 -20
14 -42 -8 -13 -7 -21 1 -29 10 -10 15 -6 22 14 8 19 18 27 35 27 13 0 26 -6
29 -12 9 -27 22 6 20 54 -1 49 -22 95 -24 53 0 -15 -2 -16 -6 -5 -4 8 -12 20
-19 27 -10 11 -13 9 -16 -9z"/>
<path d="M1831 5073 c0 -4 4 -17 9 -28 8 -19 9 -19 9 2 1 12 -3 25 -9 28 -5 3
-10 3 -9 -2z"/>
<path d="M1896 5052 c-3 -6 -4 -17 -1 -24 3 -8 2 -25 -3 -39 -6 -14 -5 -35 0
-52 6 -15 11 -44 12 -65 1 -32 4 -37 27 -40 37 -4 40 19 16 103 -25 88 -43
130 -51 117z"/>
<path d="M1581 5024 c0 -11 3 -14 6 -6 3 7 2 16 -1 19 -3 4 -6 -2 -5 -13z"/>
<path d="M1543 4995 c-3 -9 -3 -18 -1 -21 3 -3 8 4 11 16 6 23 -1 27 -10 5z"/>
<path d="M1835 5000 c3 -5 8 -10 11 -10 2 0 4 5 4 10 0 6 -5 10 -11 10 -5 0
-7 -4 -4 -10z"/>
<path d="M1565 4980 c-4 -12 -5 -24 -2 -27 3 -2 8 5 12 17 4 12 5 24 2 27 -3
2 -8 -5 -12 -17z"/>
<path d="M1632 4970 c0 -14 2 -19 5 -12 2 6 2 18 0 25 -3 6 -5 1 -5 -13z"/>
<path d="M1551 4924 c0 -11 3 -14 6 -6 3 7 2 16 -1 19 -3 4 -6 -2 -5 -13z"/>
<path d="M1644 4925 c-4 -8 -4 -24 -1 -35 5 -19 -17 -35 -34 -24 -6 3 -7 -5
-4 -19 5 -20 3 -25 -9 -23 -8 1 -19 5 -22 9 -14 14 -22 7 -17 -15 4 -18 2 -20
-6 -8 -14 20 -25 6 -13 -17 13 -24 14 -133 2 -133 -6 0 -10 -4 -10 -10 0 -5 7
-10 16 -10 10 0 14 -6 11 -15 -4 -8 -2 -17 3 -20 6 -4 10 -2 10 4 0 10 38 27
52 23 4 -1 20 24 34 55 21 45 27 71 27 127 -1 42 -5 72 -12 74 -6 2 -8 14 -5
28 7 27 -13 34 -22 9z"/>
<path d="M2270 4860 c0 -5 5 -10 11 -10 5 0 7 5 4 10 -3 6 -8 10 -11 10 -2 0
-4 -4 -4 -10z"/>
<path d="M1842 4830 c4 -24 2 -27 -9 -19 -8 7 -13 8 -13 1 0 -5 7 -13 15 -16
11 -4 19 3 25 19 5 14 14 25 20 25 5 0 10 5 10 10 0 6 -12 10 -26 10 -23 0
-26 -3 -22 -30z"/>
<path d="M2036 4829 c3 -6 1 -22 -6 -35 -12 -21 -15 -22 -34 -9 -30 22 -36 19
-30 -13 5 -27 4 -29 -25 -29 -18 0 -31 6 -31 13 0 20 -38 27 -55 10 -19 -19
-19 -30 0 -46 8 -7 15 -19 15 -26 0 -8 -7 -14 -15 -14 -10 0 -15 -10 -15 -31
0 -24 -4 -30 -17 -27 -10 2 -17 10 -15 17 1 7 -2 10 -7 7 -5 -4 -12 -2 -16 4
-4 6 -11 8 -16 5 -5 -3 -6 0 -4 8 3 7 -3 22 -15 32 -11 10 -20 30 -21 44 -1
26 -1 25 -10 -4 -20 -62 -20 -85 1 -85 16 0 20 -7 20 -35 0 -26 -3 -33 -15
-29 -10 4 -15 0 -14 -12 1 -31 15 -59 22 -46 6 8 17 7 41 -3 18 -8 37 -11 41
-7 3 4 11 8 16 8 5 1 14 2 19 3 6 0 10 7 10 14 0 6 4 18 9 26 7 11 13 10 35
-4 25 -17 26 -17 34 6 5 13 18 23 30 24 24 2 29 -14 10 -33 -6 -6 -8 -15 -4
-19 4 -4 11 -1 16 7 15 24 41 -18 34 -52 -3 -16 -2 -28 3 -28 5 0 10 12 11 28
3 31 9 67 13 67 4 0 9 61 8 104 0 24 6 50 15 60 17 19 24 64 11 70 -6 2 -16
12 -23 22 -14 20 -38 27 -26 8z m-25 -242 c-8 -8 -11 -5 -11 9 0 27 14 41 18
19 2 -9 -1 -22 -7 -28z"/>
<path d="M1500 4790 c0 -5 5 -10 11 -10 5 0 7 5 4 10 -3 6 -8 10 -11 10 -2 0
-4 -4 -4 -10z"/>
<path d="M2663 4793 c-7 -2 -13 -11 -13 -20 0 -10 -6 -12 -20 -8 -11 4 -20 2
-20 -4 0 -11 15 -14 55 -14 39 1 46 3 40 13 -3 5 -12 7 -20 3 -9 -3 -15 1 -15
10 0 9 8 18 18 20 11 3 12 5 2 5 -8 0 -21 -2 -27 -5z"/>
<path d="M2753 4775 c-19 -21 -16 -25 16 -25 17 0 31 6 35 16 3 8 2 12 -4 9
-6 -3 -10 -1 -10 4 0 15 -23 13 -37 -4z"/>
<path d="M2830 4755 l-25 -14 26 -1 c15 0 32 7 39 15 17 20 -5 20 -40 0z"/>
<path d="M3180 4739 c0 -5 5 -7 10 -4 6 3 10 8 10 11 0 2 -4 4 -10 4 -5 0 -10
-5 -10 -11z"/>
<path d="M3135 4730 c-3 -6 1 -7 9 -4 18 7 21 14 7 14 -6 0 -13 -4 -16 -10z"/>
<path d="M2750 4700 c0 -5 7 -10 15 -10 8 0 15 5 15 10 0 6 -7 10 -15 10 -8 0
-15 -4 -15 -10z"/>
<path d="M3175 4700 c-19 -8 -19 -9 3 -9 12 -1 22 4 22 9 0 6 -1 10 -2 9 -2 0
-12 -4 -23 -9z"/>
<path d="M1710 4633 c0 -5 5 -15 10 -23 8 -12 10 -11 10 8 0 12 -4 22 -10 22
-5 0 -10 -3 -10 -7z"/>
<path d="M2740 4632 c0 -4 9 -8 19 -8 11 0 17 4 15 8 -3 4 -12 8 -20 8 -8 0
-14 -4 -14 -8z"/>
<path d="M1876 4531 c-13 -24 -15 -36 -7 -44 8 -8 11 -5 11 9 0 11 5 25 11 31
6 6 9 17 7 25 -3 8 -12 0 -22 -21z"/>
<path d="M1980 4520 c0 -5 5 -10 11 -10 5 0 7 5 4 10 -3 6 -8 10 -11 10 -2 0
-4 -4 -4 -10z"/>
<path d="M3396 4495 c4 -8 8 -15 10 -15 2 0 4 7 4 15 0 8 -4 15 -10 15 -5 0
-7 -7 -4 -15z"/>
<path d="M2615 4439 c-17 -9 -33 -15 -37 -12 -23 13 -128 -101 -128 -139 0
-13 -47 -78 -70 -95 -10 -9 -11 -12 -2 -13 15 0 5 -48 -15 -68 -19 -20 -16
-24 10 -11 37 19 57 41 57 61 0 11 8 22 19 25 22 6 46 47 36 63 -4 7 1 13 11
16 20 5 44 47 44 76 0 11 7 18 20 18 13 0 25 12 35 36 14 35 16 36 55 29 44
-7 53 4 17 21 -18 8 -30 6 -52 -7z m-165 -229 c0 -5 -5 -10 -11 -10 -5 0 -7 5
-4 10 3 6 8 10 11 10 2 0 4 -4 4 -10z"/>
<path d="M2440 4434 c0 -8 5 -12 10 -9 6 3 10 10 10 16 0 5 -4 9 -10 9 -5 0
-10 -7 -10 -16z"/>
<path d="M2711 4364 c0 -11 3 -14 6 -6 3 7 2 16 -1 19 -3 4 -6 -2 -5 -13z"/>
<path d="M2065 4350 c-3 -5 -1 -10 4 -10 6 0 11 5 11 10 0 6 -2 10 -4 10 -3 0
-8 -4 -11 -10z"/>
<path d="M2106 4335 c4 -8 8 -15 10 -15 2 0 4 7 4 15 0 8 -4 15 -10 15 -5 0
-7 -7 -4 -15z"/>
<path d="M2560 4340 c-12 -7 -12 -10 -1 -10 8 0 11 -6 7 -15 -7 -20 21 -32 37
-16 8 8 7 11 -5 11 -9 0 -18 9 -20 20 -2 15 -7 17 -18 10z"/>
<path d="M2695 4330 c-3 -5 -1 -10 4 -10 6 0 11 5 11 10 0 6 -2 10 -4 10 -3 0
-8 -4 -11 -10z"/>
<path d="M1562 4310 c0 -14 2 -19 5 -12 2 6 2 18 0 25 -3 6 -5 1 -5 -13z"/>
<path d="M2015 4320 c3 -5 8 -10 11 -10 2 0 4 5 4 10 0 6 -5 10 -11 10 -5 0
-7 -4 -4 -10z"/>
<path d="M1605 4266 c-8 -59 1 -94 23 -89 6 2 14 -6 17 -17 4 -11 12 -20 20
-20 7 0 15 -3 17 -8 2 -4 32 -22 68 -41 36 -18 79 -46 95 -62 17 -16 45 -33
63 -40 17 -6 32 -16 32 -23 0 -12 12 -24 73 -70 21 -16 40 -26 43 -24 3 3 -5
32 -16 64 -12 33 -24 73 -27 91 -3 17 -14 40 -26 50 -20 18 -20 17 -15 -4 4
-13 2 -23 -3 -23 -5 0 -9 13 -9 29 0 15 -3 50 -7 76 -4 35 -3 46 5 41 8 -5 12
4 12 28 0 20 -4 36 -10 36 -5 0 -10 7 -10 15 0 8 -4 15 -10 15 -5 0 -10 -9
-10 -20 0 -17 -27 -97 -37 -109 -1 -2 -12 4 -23 14 -20 18 -20 18 -20 -18 0
-41 -5 -44 -38 -21 -20 14 -22 14 -22 -1 0 -23 -25 -12 -25 11 -1 10 -6 18
-13 17 -7 -2 -12 4 -12 12 0 8 -4 15 -10 15 -5 0 -10 7 -10 15 0 18 -20 20
-21 3 0 -7 -4 -3 -9 10 -6 14 -18 22 -33 22 -20 0 -26 7 -34 43 l-10 42 -8
-59z m295 -181 c9 -25 30 -35 30 -14 0 5 5 7 10 4 12 -8 13 -52 1 -59 -14 -9
-61 45 -61 70 0 31 8 30 20 -1z"/>
<path d="M1981 4304 c0 -11 3 -14 6 -6 3 7 2 16 -1 19 -3 4 -6 -2 -5 -13z"/>
<path d="M2187 4251 c-2 -11 -1 -25 4 -32 7 -11 9 -10 9 3 0 9 7 18 15 20 13
2 12 5 -4 15 -16 10 -20 9 -24 -6z"/>
<path d="M2280 4243 c0 -16 5 -35 10 -43 7 -11 10 -4 10 28 0 23 -4 42 -10 42
-5 0 -10 -12 -10 -27z"/>
<path d="M2040 4240 c0 -5 5 -10 11 -10 5 0 7 5 4 10 -3 6 -8 10 -11 10 -2 0
-4 -4 -4 -10z"/>
<path d="M2170 4192 c0 -12 -4 -22 -10 -22 -5 0 -10 -7 -10 -15 0 -9 6 -12 15
-9 10 4 15 0 15 -16 0 -12 4 -18 10 -15 6 4 8 11 4 16 -3 5 -7 24 -9 41 -5 37
-15 50 -15 20z"/>
<path d="M1780 4180 c0 -19 3 -21 12 -12 9 9 9 15 0 24 -9 9 -12 7 -12 -12z"/>
<path d="M2254 4167 c-8 -21 5 -44 16 -27 5 8 10 2 14 -16 6 -22 9 -25 17 -13
14 23 11 62 -5 56 -7 -3 -18 -1 -24 5 -8 8 -13 7 -18 -5z"/>
<path d="M2320 4170 c0 -5 5 -10 10 -10 6 0 10 5 10 10 0 6 -4 10 -10 10 -5 0
-10 -4 -10 -10z"/>
<path d="M2462 4081 c-8 -17 -11 -35 -7 -41 9 -15 25 -2 18 15 -3 10 2 15 16
15 12 0 21 4 21 10 0 5 -6 7 -14 4 -8 -3 -16 1 -18 11 -2 11 -7 6 -16 -14z"/>
<path d="M2061 4084 c0 -11 3 -14 6 -6 3 7 2 16 -1 19 -3 4 -6 -2 -5 -13z"/>
<path d="M2246 4084 c-3 -9 -6 -26 -6 -39 0 -13 -9 -30 -20 -38 -12 -9 -18
-20 -14 -30 3 -8 1 -25 -5 -36 -7 -13 -8 -22 -1 -26 5 -3 10 -1 10 4 0 6 5 11
10 11 6 0 10 -12 10 -26 0 -21 -4 -24 -20 -19 -11 4 -20 2 -20 -4 0 -6 11 -11
25 -11 19 0 25 -5 25 -21 0 -11 -4 -17 -10 -14 -5 3 -10 1 -10 -6 0 -6 -8 -9
-20 -6 -33 9 -22 -13 14 -28 19 -8 41 -23 48 -33 7 -11 23 -22 36 -26 12 -4
22 -12 22 -18 0 -5 10 -22 21 -36 l22 -27 -7 30 c-4 17 -13 37 -20 45 -18 21
-46 80 -46 97 0 7 -3 12 -7 11 -5 -2 -8 2 -8 7 0 11 11 11 38 0 13 -5 16 -3
12 7 -3 8 1 21 10 28 20 16 20 41 0 34 -8 -4 -15 -1 -15 5 0 6 5 11 11 11 7 0
17 7 24 17 10 14 13 10 19 -25 6 -42 26 -59 26 -23 0 10 7 24 15 31 13 11 13
15 3 21 -10 6 -8 12 7 23 20 14 19 15 -8 25 -16 6 -33 11 -39 11 -6 0 -8 10
-5 21 6 21 -12 49 -31 49 -14 0 -25 -34 -13 -38 20 -7 11 -19 -13 -19 -17 0
-23 4 -19 13 3 9 -2 14 -13 14 -15 0 -16 2 -5 9 12 8 12 12 2 25 -17 20 -27
20 -35 0z m44 -113 c0 -5 -7 -11 -15 -15 -15 -5 -20 5 -8 17 9 10 23 9 23 -2z
m30 -92 c0 -13 -32 4 -51 27 -13 16 -12 16 19 0 17 -9 32 -21 32 -27z"/>
<path d="M2535 4090 c-3 -5 -1 -10 4 -10 6 0 11 5 11 10 0 6 -2 10 -4 10 -3 0
-8 -4 -11 -10z"/>
<path d="M2027 4070 c3 -11 7 -20 9 -20 2 0 4 9 4 20 0 11 -4 20 -9 20 -5 0
-7 -9 -4 -20z"/>
<path d="M2385 4080 c-3 -5 -1 -10 4 -10 6 0 11 5 11 10 0 6 -2 10 -4 10 -3 0
-8 -4 -11 -10z"/>
<path d="M2510 4050 c0 -5 5 -10 11 -10 5 0 7 5 4 10 -3 6 -8 10 -11 10 -2 0
-4 -4 -4 -10z"/>
<path d="M2420 4019 c0 -5 5 -7 10 -4 6 3 10 8 10 11 0 2 -4 4 -10 4 -5 0 -10
-5 -10 -11z"/>
<path d="M2832 4004 c-7 -8 -11 -22 -9 -32 4 -15 5 -15 6 0 0 9 8 18 16 20 8
2 11 8 7 14 -5 9 -11 8 -20 -2z"/>
<path d="M2062 3970 c0 -14 2 -19 5 -12 2 6 2 18 0 25 -3 6 -5 1 -5 -13z"/>
<path d="M2480 3980 c0 -5 5 -10 10 -10 6 0 10 5 10 10 0 6 -4 10 -10 10 -5 0
-10 -4 -10 -10z"/>
<path d="M1670 3911 c0 -12 9 -20 25 -23 30 -6 32 3 7 25 -24 22 -32 21 -32
-2z"/>
<path d="M2946 3883 c-11 -11 -6 -23 9 -23 8 0 15 -4 15 -10 0 -5 7 -10 15
-10 12 0 13 4 6 19 -11 20 -35 33 -45 24z"/>
<path d="M1720 3858 c0 -14 39 -68 40 -55 0 11 -29 67 -35 67 -3 0 -5 -6 -5
-12z"/>
<path d="M1920 3779 c0 -5 9 -9 20 -9 11 0 20 2 20 4 0 2 -9 6 -20 9 -11 3
-20 1 -20 -4z"/>
<path d="M2240 3691 c0 -6 4 -13 10 -16 6 -3 7 1 4 9 -7 18 -14 21 -14 7z"/>
<path d="M1818 3650 c-32 -35 -34 -43 -13 -60 15 -13 21 -2 8 16 -5 5 -1 1 9
-8 23 -26 28 -22 18 13 -8 28 -8 30 8 17 9 -7 22 -20 29 -28 10 -12 12 -8 13
23 0 27 -4 37 -12 34 -7 -2 -17 2 -23 9 -8 11 -16 7 -37 -16z"/>
<path d="M1821 3550 c0 -14 4 -32 9 -40 8 -12 10 -12 9 5 0 11 -4 29 -9 40 -8
18 -9 18 -9 -5z"/>
<path d="M1895 3540 c3 -5 8 -10 11 -10 2 0 4 5 4 10 0 6 -5 10 -11 10 -5 0
-7 -4 -4 -10z"/>
<path d="M2241 3500 c-10 -6 3 -26 54 -80 72 -77 78 -72 20 15 -43 65 -57 76
-74 65z"/>
<path d="M1892 3488 c6 -17 38 -19 38 -2 0 8 -9 14 -21 14 -11 0 -19 -5 -17
-12z"/>
<path d="M1941 3385 c12 -19 23 -35 26 -35 2 0 3 3 1 8 -22 45 -33 62 -39 62
-5 0 1 -16 12 -35z"/>
<path d="M1869 3383 c26 -39 78 -83 97 -83 8 0 14 -5 14 -11 0 -5 5 -7 10 -4
11 7 -7 31 -24 32 -5 1 -13 8 -18 17 -5 9 -13 14 -18 11 -4 -3 -25 12 -45 33
-36 35 -37 36 -16 5z"/>
<path d="M1970 3402 c0 -5 11 -19 24 -31 25 -23 25 -23 19 -2 -5 21 -43 50
-43 33z"/>
<path d="M2026 3295 c4 -8 8 -15 10 -15 2 0 4 7 4 15 0 8 -4 15 -10 15 -5 0
-7 -7 -4 -15z"/>
<path d="M2030 3155 c7 -9 15 -13 17 -11 7 7 -7 26 -19 26 -6 0 -6 -6 2 -15z"/>
<path d="M2533 3075 c7 -14 18 -25 25 -25 6 0 12 -3 12 -8 0 -4 9 -13 21 -20
27 -17 18 -1 -25 46 -36 38 -48 41 -33 7z"/>
<path d="M2110 3086 c0 -2 7 -9 15 -16 9 -7 15 -8 15 -2 0 5 -7 12 -15 16 -8
3 -15 4 -15 2z"/>
<path d="M2425 2980 c3 -5 8 -10 11 -10 2 0 4 5 4 10 0 6 -5 10 -11 10 -5 0
-7 -4 -4 -10z"/>
<path d="M2450 2960 c0 -6 7 -10 15 -10 8 0 15 2 15 4 0 2 -7 6 -15 10 -8 3
-15 1 -15 -4z"/>
<path d="M2190 2941 c5 -11 15 -23 21 -27 6 -3 3 5 -6 20 -20 30 -30 35 -15 7z"/>
<path d="M2505 2900 c3 -5 8 -10 11 -10 2 0 4 5 4 10 0 6 -5 10 -11 10 -5 0
-7 -4 -4 -10z"/>
<path d="M2470 2891 c0 -6 4 -13 10 -16 6 -3 7 1 4 9 -7 18 -14 21 -14 7z"/>
<path d="M2525 2830 c3 -5 14 -10 23 -10 15 0 15 2 2 10 -20 13 -33 13 -25 0z"/>
<path d="M2906 2797 c3 -10 9 -15 12 -12 3 3 0 11 -7 18 -10 9 -11 8 -5 -6z"/>
</g>
</svg>
