<?xml version="1.0" standalone="no"?>
<!DOCTYPE svg PUBLIC "-//W3C//DTD SVG 20010904//EN"
 "http://www.w3.org/TR/2001/REC-SVG-20010904/DTD/svg10.dtd">
<svg version="1.0" xmlns="http://www.w3.org/2000/svg"
 width="1024.000000pt" height="1024.000000pt" viewBox="0 0 1024.000000 1024.000000"
 preserveAspectRatio="xMidYMid meet">

<g transform="translate(0.000000,1024.000000) scale(0.100000,-0.100000)"
fill="#000000" stroke="none">
<path d="M4667 8373 c-15 -2 -25 -9 -22 -14 4 -5 -14 -9 -40 -9 -31 0 -44 -4
-39 -11 4 -7 24 -9 53 -6 45 5 141 -19 141 -35 0 -12 -28 -10 -35 2 -3 6 -11
10 -16 10 -6 0 -7 -4 -4 -10 3 -5 -1 -10 -10 -10 -9 0 -13 5 -10 10 4 6 -8 10
-29 10 -20 0 -36 -4 -36 -10 0 -5 -29 -9 -64 -8 -35 0 -67 -1 -72 -4 -5 -3
-18 -2 -29 3 -18 7 -17 8 7 8 37 1 78 21 78 39 0 12 -10 13 -57 7 -31 -4 -63
-9 -72 -12 -9 -2 -2 4 14 13 49 29 10 27 -124 -5 -68 -17 -133 -29 -145 -27
-12 2 -15 1 -8 -1 13 -5 17 -23 5 -23 -5 0 -24 4 -44 9 -43 10 -95 2 -204 -32
-44 -14 -111 -35 -150 -47 -38 -12 -77 -22 -85 -23 -8 -1 -17 -5 -20 -8 -3 -3
-43 -21 -90 -38 -120 -46 -272 -129 -435 -236 -528 -347 -932 -827 -1190
-1410 -74 -167 -176 -476 -209 -630 -66 -314 -89 -635 -67 -910 22 -274 92
-624 170 -840 71 -199 83 -228 176 -410 218 -428 464 -746 805 -1041 206 -178
445 -336 699 -464 351 -175 647 -271 1027 -332 123 -20 176 -23 464 -23 332 0
402 5 625 46 334 61 771 220 1024 371 109 65 289 188 327 223 6 6 23 19 39 30
76 54 245 214 245 233 0 6 5 12 10 12 6 0 10 7 10 15 0 9 -6 12 -15 8 -13 -4
-12 1 4 28 28 48 117 133 130 125 7 -5 8 -1 4 10 -5 13 -3 15 7 9 8 -5 11 -4
6 3 -3 6 3 26 14 44 11 18 20 39 20 47 0 7 23 38 50 68 28 30 50 59 50 64 0 5
5 9 10 9 6 0 10 -8 10 -17 0 -14 3 -14 20 5 11 12 20 27 20 34 -1 8 -5 7 -14
-5 -14 -19 -26 -22 -26 -8 0 10 116 170 152 208 11 13 24 21 28 18 4 -3 13 10
21 28 7 17 20 44 30 58 10 14 16 35 13 46 -4 14 8 46 34 90 87 151 112 222
112 312 l-1 66 -27 -58 c-15 -32 -31 -55 -35 -51 -4 4 -7 0 -7 -9 0 -10 -5
-17 -10 -17 -6 0 -8 -10 -4 -24 3 -13 1 -27 -4 -30 -6 -4 -8 2 -5 15 5 19 4
20 -16 8 -11 -8 -21 -20 -21 -27 0 -7 -11 -25 -25 -40 -14 -15 -25 -31 -25
-36 0 -5 -9 -28 -19 -50 -11 -23 -21 -59 -23 -81 -2 -22 -10 -48 -18 -58 -19
-23 -57 -85 -70 -117 -29 -69 -35 -80 -42 -80 -5 0 -8 -5 -8 -11 0 -6 7 -9 15
-5 19 7 19 -1 -1 -21 -8 -9 -13 -22 -10 -30 3 -8 1 -11 -4 -8 -6 3 -7 17 -4
31 8 33 0 30 -25 -8 -11 -18 -21 -28 -21 -22 0 6 8 22 19 35 25 33 137 254
154 307 20 59 -5 38 -29 -24 -9 -24 -20 -44 -25 -44 -13 0 65 177 94 211 15
18 27 42 27 54 0 12 4 25 9 30 20 23 43 187 36 264 -5 57 -4 73 5 65 6 -6 15
-33 19 -60 l7 -49 16 51 c9 28 26 72 38 98 20 45 21 54 10 115 -19 102 -27
279 -14 274 16 -6 24 32 18 91 -8 83 -14 102 -25 85 -7 -11 -9 -10 -8 6 0 11
4 29 8 39 6 15 13 -2 26 -62 10 -44 21 -79 25 -77 4 2 1 -24 -7 -58 -8 -38
-11 -100 -8 -162 3 -55 5 -107 5 -115 1 -21 70 158 70 181 0 10 5 19 11 19 21
0 6 169 -19 221 -23 48 -38 159 -21 159 6 0 7 14 4 34 -4 20 -2 36 4 40 24 15
1 107 -33 136 -14 11 -16 5 -16 -51 0 -41 7 -79 20 -106 10 -24 15 -43 10 -43
-6 0 -10 4 -10 9 0 4 -11 19 -23 32 -27 27 -38 70 -30 112 4 21 8 25 14 15 14
-22 11 47 -5 94 -8 24 -17 59 -21 78 -5 31 -3 29 19 -17 14 -29 30 -53 36 -53
12 0 12 -2 0 57 -6 30 -7 59 -1 78 8 25 9 26 10 8 1 -13 6 -23 11 -23 6 0 10
-11 10 -24 0 -13 6 -27 13 -29 9 -4 9 -8 -2 -15 -11 -8 -11 -11 0 -16 11 -5
11 -7 2 -12 -8 -3 -11 -15 -7 -30 4 -15 2 -24 -5 -24 -6 0 -11 -12 -10 -27 0
-24 2 -25 8 -9 7 18 8 18 14 2 4 -10 7 -26 7 -37 0 -10 4 -19 9 -19 21 0 30
68 11 80 -13 9 -22 50 -11 50 6 0 11 -9 11 -20 0 -11 5 -20 10 -20 14 0 13
101 -2 158 -11 45 -54 119 -67 115 -3 -1 -12 10 -18 24 -12 25 -12 25 9 7 21
-19 21 -19 14 1 -5 11 -15 40 -23 65 -17 49 -40 82 -28 40 5 -20 2 -18 -16 10
-12 19 -28 51 -36 70 l-13 35 5 -40 c2 -21 13 -51 23 -65 10 -14 21 -36 24
-50 4 -14 11 -40 16 -57 6 -18 7 -33 3 -33 -11 0 -29 40 -36 82 -3 20 -15 47
-26 60 l-20 23 6 -25 c4 -14 9 -33 12 -44 4 -13 1 -16 -7 -11 -10 6 -11 -3 -6
-40 6 -36 5 -45 -5 -40 -9 6 -10 0 -6 -25 4 -18 7 -42 7 -54 0 -15 3 -17 9 -8
14 23 21 -26 14 -100 -3 -40 -10 -65 -15 -61 -12 7 -2 -29 18 -69 20 -39 17
-44 -11 -18 l-25 23 0 -42 c0 -23 7 -58 15 -79 15 -37 15 -37 -4 -13 -11 14
-21 48 -24 80 -5 55 -28 139 -47 173 -13 23 -13 154 0 179 6 10 12 43 13 73 1
30 6 51 11 48 26 -16 -27 282 -57 317 -8 9 -17 28 -21 43 -3 14 -16 48 -27 75
-12 26 -21 62 -20 78 1 24 0 27 -9 15 -9 -12 -11 -10 -7 13 2 15 1 27 -4 27
-4 0 -10 8 -13 18 -3 9 -15 23 -27 30 -20 13 -21 12 -15 -10 3 -12 8 -34 12
-48 5 -23 4 -23 -7 -6 -7 11 -14 36 -16 55 -2 20 -6 53 -9 74 -5 30 -3 36 9
31 8 -3 18 -20 21 -37 4 -18 20 -48 37 -67 l29 -35 -6 35 c-4 19 -11 39 -15
45 -5 5 -9 21 -9 36 0 15 -4 31 -10 34 -5 3 -10 16 -10 28 0 19 3 18 20 -10
29 -48 33 -40 9 19 -26 66 -28 69 -43 66 -27 -6 -63 55 -68 114 -3 36 -11 65
-22 77 -12 13 -20 42 -23 84 -6 74 -38 148 -70 162 -13 5 -23 13 -23 18 0 4 5
5 10 2 18 -11 10 14 -12 40 -13 15 -45 48 -72 75 -27 28 -47 52 -44 55 7 8
-22 44 -99 122 -57 59 -84 79 -67 51 4 -6 -5 -3 -19 8 -15 10 -27 22 -27 26 0
4 -22 30 -48 56 -37 37 -46 52 -39 64 13 19 3 47 -20 55 -10 3 -45 26 -79 50
-34 23 -64 40 -67 37 -3 -4 -24 8 -45 25 -22 17 -46 31 -54 31 -7 0 -21 8 -29
18 -22 23 -59 53 -59 47 0 -3 -9 -1 -20 5 -11 6 -20 7 -20 2 0 -9 99 -123 117
-135 7 -4 13 -15 13 -24 0 -10 -42 26 -99 85 -55 56 -105 102 -112 102 -7 0
-23 10 -36 22 -13 12 -23 16 -23 10 0 -6 -27 8 -60 30 -33 23 -60 45 -60 50 0
4 -9 8 -20 8 -26 0 -72 29 -64 41 3 5 -3 6 -12 2 -12 -4 -15 -3 -10 5 9 15
-89 110 -121 118 -13 4 -23 11 -23 18 -1 22 -95 80 -157 97 -35 10 -63 14 -63
8 0 -5 9 -9 19 -9 11 0 23 -5 26 -10 4 -6 3 -10 -2 -9 -28 5 -42 -2 -37 -18 4
-10 -9 -2 -27 18 -37 40 -90 64 -107 47 -6 -6 -20 -4 -40 6 -17 9 -38 16 -47
16 -9 0 -14 4 -11 9 7 10 -71 51 -97 51 -9 0 -17 3 -17 8 0 4 -38 7 -83 7 -57
0 -89 4 -101 14 -19 16 -36 7 -19 -10 12 -12 95 -32 128 -30 11 0 45 -8 76
-19 31 -10 66 -16 77 -13 27 7 30 -13 3 -22 -19 -6 -36 -2 -91 23 -19 8 -48
15 -64 14 -50 -1 -131 25 -160 51 -27 25 -27 25 -4 21 21 -4 21 -4 3 5 -11 5
-29 8 -40 7 -11 -2 -14 -1 -7 1 29 10 8 18 -50 18 -35 0 -72 6 -83 13 -17 11
-10 12 45 7 77 -7 65 10 -15 20 -27 4 -59 13 -70 19 -11 7 -60 16 -109 19 -49
3 -92 10 -95 15 -9 14 -59 23 -66 12 -3 -5 -1 -10 5 -10 6 0 8 -5 4 -11 -4 -8
-9 -8 -17 0 -6 6 -23 11 -38 11 -15 0 -31 5 -34 10 -3 6 -12 9 -18 9 -7 -1
-24 -4 -40 -6z m256 -49 c40 -9 77 -20 82 -24 6 -5 26 -13 45 -19 l35 -11 -35
6 c-19 3 -60 8 -90 11 -30 3 -59 9 -65 13 -5 4 -32 11 -60 15 -43 7 -47 9 -25
16 36 10 35 10 113 -7z m-574 -9 c-3 -2 -36 -6 -74 -9 -39 -2 -62 -1 -53 2 20
8 134 14 127 7z m717 -13 c-10 -2 -22 0 -28 6 -6 6 0 7 19 4 21 -5 23 -7 9
-10z m-973 -29 c-7 -2 -19 -2 -25 0 -7 3 -2 5 12 5 14 0 19 -2 13 -5z m304 1
c-4 -4 -2 -13 4 -20 8 -9 2 -10 -28 -3 -21 5 -54 9 -73 9 -28 1 -31 3 -15 9
25 10 121 14 112 5z m-132 -54 c-3 -5 -10 -10 -16 -10 -5 0 -9 5 -9 10 0 6 7
10 16 10 8 0 12 -4 9 -10z m1300 -58 c-3 -3 -11 0 -18 7 -9 10 -8 11 6 5 10
-3 15 -9 12 -12z m-458 -48 c-3 -3 -12 -4 -19 -1 -8 3 -5 6 6 6 11 1 17 -2 13
-5z m583 -98 c14 -16 18 -26 10 -21 -29 16 -49 38 -44 47 3 5 7 8 8 6 0 -2 12
-16 26 -32z m230 9 c14 -19 14 -19 -2 -6 -10 7 -18 18 -18 24 0 6 1 8 3 6 1
-2 9 -13 17 -24z m-132 -45 c33 -16 64 -30 69 -30 11 0 118 -46 200 -87 29
-14 51 -29 48 -33 -3 -4 7 -11 21 -14 39 -10 91 -48 110 -81 18 -30 18 -30
-25 7 -24 21 -65 44 -92 53 -26 9 -53 23 -59 31 -7 7 -27 14 -46 14 -18 0 -36
5 -39 10 -3 6 4 10 16 10 33 0 21 7 -98 59 -99 43 -188 91 -171 91 4 0 34 -13
66 -30z m237 -46 c11 -8 14 -14 8 -14 -7 0 -14 4 -18 9 -3 5 -18 12 -33 16
-15 3 -38 15 -52 25 -23 19 -22 19 25 -1 28 -12 59 -28 70 -35z m-280 18 c-3
-3 -11 0 -18 7 -9 10 -8 11 6 5 10 -3 15 -9 12 -12z m465 -88 c0 -9 -28 -3
-46 11 -17 13 -16 14 14 4 17 -6 32 -13 32 -15z m-250 -79 c14 -8 19 -14 10
-14 -8 0 -24 6 -34 14 -25 19 -9 19 24 0z m327 -5 c14 -11 21 -20 15 -20 -12
0 -60 39 -49 40 5 0 20 -9 34 -20z m-292 -103 c8 -11 27 -28 42 -38 21 -14 24
-19 10 -19 -9 0 -34 15 -54 33 -34 32 -35 36 -27 73 l8 39 4 -34 c2 -19 10
-44 17 -54z m660 -67 c3 -5 1 -10 -4 -10 -6 0 -11 5 -11 10 0 6 2 10 4 10 3 0
8 -4 11 -10z m30 -20 c3 -5 1 -10 -4 -10 -6 0 -11 5 -11 10 0 6 2 10 4 10 3 0
8 -4 11 -10z m25 -24 c0 -3 -4 -8 -10 -11 -5 -3 -10 -1 -10 4 0 6 5 11 10 11
6 0 10 -2 10 -4z m75 -39 c11 -8 14 -16 8 -20 -6 -4 -18 2 -28 13 -21 23 -8
27 20 7z m86 -49 c26 -21 35 -34 28 -39 -9 -5 -2 -21 22 -50 32 -40 32 -42 7
-24 -15 11 -28 23 -28 28 0 4 -6 7 -12 7 -7 0 -14 11 -14 25 -1 15 2 22 9 18
6 -3 7 -1 3 6 -6 9 -11 9 -21 1 -15 -12 -35 -6 -35 10 0 5 8 6 18 3 15 -6 15
-5 3 10 -7 9 -20 17 -27 17 -8 0 -14 5 -14 10 0 18 20 11 61 -22z m-324 -49
c2 -34 2 -34 -7 -6 -5 16 -17 35 -27 43 -16 13 -16 13 6 6 19 -7 26 -17 28
-43z m73 1 c6 -11 9 -20 7 -20 -2 0 -12 9 -22 20 -10 11 -13 20 -7 20 6 0 16
-9 22 -20z m340 -30 c6 -11 9 -20 7 -20 -2 0 -12 9 -22 20 -10 11 -13 20 -7
20 6 0 16 -9 22 -20z m-100 -10 c0 -5 -2 -10 -4 -10 -3 0 -8 5 -11 10 -3 6 -1
10 4 10 6 0 11 -4 11 -10z m58 -50 c3 -8 -5 -6 -21 6 -15 10 -27 23 -27 28 0
12 43 -18 48 -34z m-368 -25 c7 -9 8 -15 2 -15 -5 0 -12 7 -16 15 -3 8 -4 15
-2 15 2 0 9 -7 16 -15z m360 -15 c0 -5 -2 -10 -4 -10 -3 0 -8 5 -11 10 -3 6
-1 10 4 10 6 0 11 -4 11 -10z m-50 -80 c0 -4 7 -11 16 -14 12 -5 15 -2 10 11
-6 14 -4 15 5 6 6 -6 17 -9 24 -7 7 3 20 -5 28 -17 9 -12 22 -19 31 -16 8 3
17 -1 20 -10 5 -11 2 -14 -10 -9 -12 4 -15 2 -10 -9 8 -22 -6 -19 -50 11 -21
15 -44 27 -50 28 -16 3 -74 53 -67 59 6 7 53 -22 53 -33z m249 -7 c10 -10 31
-42 46 -70 16 -29 32 -53 37 -53 4 0 8 -7 8 -15 0 -8 6 -15 13 -15 7 0 19 -17
26 -37 8 -21 27 -56 42 -77 16 -22 29 -45 29 -51 0 -6 14 -32 30 -58 17 -26
30 -50 30 -54 0 -12 -74 79 -104 130 -18 29 -41 62 -52 73 -10 11 -39 44 -64
73 -25 29 -51 60 -59 68 -18 19 -8 27 18 13 28 -14 26 -1 -4 40 -35 48 -33 68
4 33z m-68 -70 c13 -15 12 -15 -8 -4 -24 12 -29 21 -14 21 5 0 15 -7 22 -17z
m163 5 c25 -26 57 -79 54 -88 -2 -5 -20 15 -41 45 -35 51 -42 72 -13 43z m64
-133 c-3 -3 -9 2 -12 12 -6 14 -5 15 5 6 7 -7 10 -15 7 -18z m22 -26 c0 11 5
10 20 -4 11 -10 17 -22 14 -27 -3 -5 2 -18 12 -29 9 -10 12 -19 7 -19 -14 0
-73 67 -73 83 0 7 4 6 10 -3 8 -12 10 -12 10 -1z m80 -158 c0 -14 -6 -6 -35
51 -4 7 3 2 14 -11 12 -13 21 -31 21 -40z m-412 4 c-3 -3 -9 2 -12 12 -6 14
-5 15 5 6 7 -7 10 -15 7 -18z m526 -108 c4 -19 3 -26 -4 -22 -5 3 -10 12 -10
19 0 7 -13 29 -30 47 -40 46 -38 58 4 17 18 -18 36 -46 40 -61z m-58 -79 c13
-21 24 -50 24 -65 0 -26 -2 -26 -19 12 -11 22 -40 67 -65 100 -25 33 -46 65
-45 70 0 13 75 -70 105 -117z m64 -105 c0 -13 -3 -13 -15 -3 -8 7 -12 16 -9
21 8 13 24 1 24 -18z m75 -103 c4 -16 10 -30 15 -30 5 0 14 -17 21 -37 6 -21
17 -44 23 -52 9 -12 8 -12 -11 0 -13 8 -23 22 -23 31 0 9 -8 25 -19 35 -21 20
-38 83 -23 83 6 0 13 -13 17 -30z m-9 -124 c25 -36 17 -53 -12 -24 -22 22 -25
30 -18 59 7 31 8 32 12 9 2 -13 10 -33 18 -44z m34 -532 c0 -8 -4 -12 -10 -9
-5 3 -10 13 -10 21 0 8 5 12 10 9 6 -3 10 -13 10 -21z m300 -315 c0 -6 -4 -7
-10 -4 -5 3 -10 11 -10 16 0 6 5 7 10 4 6 -3 10 -11 10 -16z m74 -15 c3 -9 6
-23 6 -32 0 -21 -15 -5 -25 26 -7 25 9 31 19 6z m-46 -35 c-3 -8 -7 -3 -11 10
-4 17 -3 21 5 13 5 -5 8 -16 6 -23z m21 -36 c0 -25 -1 -25 -8 -8 -5 11 -7 23
-4 28 8 14 13 7 12 -20z m-459 -114 c0 -6 -4 -7 -10 -4 -5 3 -10 11 -10 16 0
6 5 7 10 4 6 -3 10 -11 10 -16z m390 -155 c0 -8 -4 -12 -10 -9 -5 3 -10 13
-10 21 0 8 5 12 10 9 6 -3 10 -13 10 -21z m24 -126 c-4 -6 -2 -13 4 -17 16
-10 28 -91 13 -91 -6 0 -11 12 -11 27 0 14 -7 34 -15 43 -10 11 -13 27 -8 55
6 35 7 36 15 16 4 -13 5 -27 2 -33z m73 -75 c-3 -10 -5 -4 -5 12 0 17 2 24 5
18 2 -7 2 -21 0 -30z m-20 -80 c-3 -10 -5 -4 -5 12 0 17 2 24 5 18 2 -7 2 -21
0 -30z m-183 -168 l6 -30 -14 25 c-8 14 -12 28 -9 33 7 11 9 7 17 -28z m153
-2 c-3 -10 -5 -4 -5 12 0 17 2 24 5 18 2 -7 2 -21 0 -30z m-350 -65 c-3 -7 -5
-2 -5 12 0 14 2 19 5 13 2 -7 2 -19 0 -25z m281 -43 c-2 -27 -9 -47 -17 -50
-16 -6 -31 12 -30 35 0 10 3 8 9 -5 7 -16 9 -17 9 -3 1 18 21 68 28 68 2 0 2
-20 1 -45z m-189 -122 c0 -5 -4 -17 -9 -28 -8 -18 -9 -17 -9 8 -1 15 4 27 9
27 6 0 10 -3 9 -7z m-12 -85 c-3 -7 -5 -2 -5 12 0 14 2 19 5 13 2 -7 2 -19 0
-25z m103 -538 c-17 -32 -22 -18 -8 21 8 22 13 28 16 17 2 -9 -2 -27 -8 -38z
m-203 -52 c-3 -8 -6 -5 -6 6 -1 11 2 17 5 13 3 -3 4 -12 1 -19z m30 -150 c-3
-8 -6 -5 -6 6 -1 11 2 17 5 13 3 -3 4 -12 1 -19z m153 -63 c-6 -8 -8 -20 -4
-27 4 -7 4 -10 0 -6 -4 3 -24 -25 -44 -64 -20 -39 -38 -65 -40 -59 -2 6 -1 19
3 29 3 9 6 18 6 19 0 1 15 26 34 55 19 29 35 56 35 60 0 5 5 8 11 8 8 0 8 -4
-1 -15z m-182 -115 c0 -16 -4 -30 -9 -30 -5 0 -9 -12 -9 -26 0 -14 -4 -23 -10
-19 -6 3 -10 -5 -10 -19 0 -14 -5 -28 -12 -32 -16 -10 -5 40 23 105 13 28 23
51 24 51 1 0 2 -13 3 -30z m-32 -217 c-9 -16 -15 -21 -16 -12 0 8 5 20 11 26
6 6 9 17 7 25 -3 7 -12 -4 -22 -26 -9 -21 -14 -41 -12 -45 3 -4 -6 -20 -19
-37 -24 -28 -33 -21 -16 14 4 9 21 44 36 77 27 58 28 59 37 33 7 -19 5 -35 -6
-55z m-226 -337 c0 -3 -4 -8 -10 -11 -5 -3 -10 -1 -10 4 0 6 5 11 10 11 6 0
10 -2 10 -4z m-124 -114 c-18 -16 -18 -16 -6 6 6 13 14 21 18 18 3 -4 -2 -14
-12 -24z m84 10 c0 -5 -14 -21 -31 -38 -29 -27 -30 -28 -17 -4 7 14 17 31 21
38 9 13 27 16 27 4z"/>
<path d="M4468 8363 c6 -2 18 -2 25 0 6 3 1 5 -13 5 -14 0 -19 -2 -12 -5z"/>
<path d="M5118 8353 c7 -3 16 -2 19 1 4 3 -2 6 -13 5 -11 0 -14 -3 -6 -6z"/>
<path d="M5168 8343 c7 -3 16 -2 19 1 4 3 -2 6 -13 5 -11 0 -14 -3 -6 -6z"/>
<path d="M5366 8341 c10 -11 72 -27 63 -17 -4 4 -21 11 -39 16 -20 6 -30 6
-24 1z"/>
<path d="M5088 8333 c7 -3 16 -2 19 1 4 3 -2 6 -13 5 -11 0 -14 -3 -6 -6z"/>
<path d="M5128 8323 c7 -3 16 -2 19 1 4 3 -2 6 -13 5 -11 0 -14 -3 -6 -6z"/>
<path d="M5361 8289 c21 -4 54 -17 75 -28 40 -19 94 -35 94 -27 0 3 -16 12
-35 21 -19 8 -50 22 -69 30 -19 8 -49 15 -68 14 l-33 -1 36 -9z"/>
<path d="M5620 8247 c14 -7 40 -11 58 -9 43 5 39 8 -28 15 -48 6 -52 5 -30 -6z"/>
<path d="M5664 8223 c13 -13 130 -55 166 -60 l35 -5 -33 21 c-18 12 -43 21
-56 21 -13 0 -40 7 -59 15 -38 16 -65 20 -53 8z"/>
<path d="M5568 8208 c10 -10 102 -29 102 -21 0 8 -70 33 -92 33 -17 0 -19 -3
-10 -12z"/>
<path d="M5910 8142 c0 -10 48 -37 55 -31 2 3 -9 13 -25 23 -17 9 -30 13 -30
8z"/>
<path d="M6070 8040 c6 -11 27 -24 48 -29 21 -6 46 -17 57 -25 29 -22 35 -19
22 13 -10 28 -12 29 -120 56 -14 3 -15 1 -7 -15z"/>
<path d="M6155 7955 c44 -40 58 -47 81 -44 4 0 10 -3 13 -8 11 -16 71 -55 71
-46 0 12 -58 54 -77 57 -8 2 -23 12 -32 23 -15 20 -83 63 -99 63 -4 0 15 -20
43 -45z"/>
<path d="M6235 7950 c4 -6 24 -22 45 -35 21 -13 51 -37 65 -52 27 -28 27 -28
20 -4 l-8 25 32 -27 c18 -15 37 -27 44 -27 10 0 -21 41 -52 67 -8 7 -11 16 -7
20 4 5 13 1 19 -7 7 -9 34 -33 62 -55 27 -22 56 -46 63 -52 7 -7 16 -13 20
-13 8 0 -106 106 -135 127 -12 8 -27 12 -33 8 -6 -4 -17 -1 -25 5 -8 6 -24 10
-37 9 -13 -2 -33 2 -45 9 -27 15 -36 15 -28 2z m80 -30 c3 -5 2 -10 -4 -10 -5
0 -13 5 -16 10 -3 6 -2 10 4 10 5 0 13 -4 16 -10z"/>
<path d="M6525 7840 c3 -5 8 -10 11 -10 2 0 4 5 4 10 0 6 -5 10 -11 10 -5 0
-7 -4 -4 -10z"/>
<path d="M6574 7831 c20 -22 26 -25 26 -13 0 4 -10 13 -22 21 -23 14 -23 14
-4 -8z"/>
<path d="M6694 7821 c20 -22 26 -25 26 -13 0 4 -10 13 -22 21 -23 14 -23 14
-4 -8z"/>
<path d="M6531 7743 c20 -27 59 -65 59 -57 0 3 6 2 13 -3 6 -6 25 -13 41 -17
27 -7 28 -6 15 10 -8 9 -33 25 -55 36 -23 10 -47 25 -54 33 -17 21 -35 19 -19
-2z"/>
<path d="M6695 7660 c16 -17 45 -35 65 -40 19 -5 49 -23 67 -40 41 -39 50 -38
22 1 -25 36 -135 109 -163 109 -17 0 -16 -4 9 -30z"/>
<path d="M6761 7607 c2 -1 14 -11 27 -21 12 -11 22 -16 22 -13 0 10 -31 37
-42 37 -6 0 -9 -1 -7 -3z"/>
<path d="M6870 7536 c0 -2 8 -10 18 -17 15 -13 16 -12 3 4 -13 16 -21 21 -21
13z"/>
<path d="M7220 7370 c0 -5 5 -10 11 -10 5 0 7 5 4 10 -3 6 -8 10 -11 10 -2 0
-4 -4 -4 -10z"/>
<path d="M7047 7335 c10 -13 24 -26 31 -29 7 -3 2 8 -10 24 -12 17 -26 30 -30
30 -5 0 -1 -11 9 -25z"/>
<path d="M7128 7310 c-3 -10 13 -32 46 -62 28 -27 54 -48 59 -48 4 0 5 -4 2
-10 -6 -10 -5 -12 46 -70 34 -38 30 -24 -7 27 -13 17 -24 37 -24 43 0 16 -80
100 -96 100 -7 0 -14 8 -16 18 -3 14 -5 14 -10 2z"/>
<path d="M7496 6796 c3 -9 10 -13 15 -10 6 3 7 -5 4 -19 -4 -15 1 -41 13 -68
15 -33 17 -46 9 -52 -8 -6 -7 -7 4 -4 9 3 24 -4 34 -16 12 -14 20 -17 23 -9 2
6 -4 19 -12 28 -15 14 -22 34 -12 34 2 0 14 -16 26 -36 28 -44 36 -40 12 7
-31 60 -33 63 -43 48 -7 -11 -9 -10 -9 3 0 9 6 19 13 22 6 3 3 4 -8 1 -24 -6
-55 33 -35 45 8 5 7 9 -2 17 -28 22 -38 24 -32 9z"/>
<path d="M7590 6591 c0 -13 26 -32 33 -24 8 7 -11 33 -24 33 -5 0 -9 -4 -9 -9z"/>
<path d="M7598 6548 c7 -7 12 -20 12 -30 0 -24 26 -76 53 -105 11 -13 21 -39
22 -61 1 -21 10 -51 21 -67 25 -39 30 -13 5 29 -26 42 -27 54 -1 31 11 -10 20
-15 20 -12 0 16 -27 64 -45 82 -12 12 -30 45 -41 75 -10 30 -23 58 -29 62 -16
12 -30 9 -17 -4z"/>
<path d="M7580 6531 c0 -5 5 -13 10 -16 6 -3 10 -2 10 4 0 5 -4 13 -10 16 -5
3 -10 2 -10 -4z"/>
<path d="M7590 6483 c0 -12 5 -25 11 -28 17 -11 18 -2 4 25 -14 24 -14 24 -15
3z"/>
<path d="M7680 6453 c0 -15 19 -37 26 -31 3 4 -1 14 -10 23 -9 9 -16 13 -16 8z"/>
<path d="M7731 6382 c12 -34 29 -52 29 -30 0 7 -9 24 -20 38 l-20 25 11 -33z"/>
<path d="M7760 6394 c0 -3 7 -18 15 -33 8 -16 11 -32 7 -36 -4 -5 1 -5 10 -2
11 4 15 2 12 -7 -3 -7 6 -30 20 -51 14 -21 26 -50 26 -64 0 -14 3 -37 6 -51 4
-20 3 -22 -5 -10 -9 13 -11 12 -11 -3 0 -10 5 -28 11 -39 10 -18 9 -20 -5 -15
-33 13 -9 -88 27 -110 7 -4 23 -23 36 -40 12 -18 27 -33 34 -33 8 0 8 3 -1 12
-7 7 -12 19 -12 27 0 9 -7 28 -14 44 -8 15 -11 27 -5 27 5 0 17 -19 26 -42 25
-62 27 -30 3 43 -13 39 -32 73 -48 87 l-27 23 28 -10 c17 -7 27 -7 27 -1 0 6
-4 10 -9 10 -5 0 -7 8 -4 19 3 10 0 22 -6 25 -6 4 -11 17 -11 29 0 12 -7 31
-15 41 -8 11 -12 29 -9 39 5 14 -8 33 -50 73 -31 30 -56 52 -56 48z m137 -336
c-3 -8 -6 -5 -6 6 -1 11 2 17 5 13 3 -3 4 -12 1 -19z"/>
<path d="M7737 6308 c6 -7 15 -26 21 -43 l10 -30 1 36 c1 25 -4 39 -15 43 -23
9 -28 7 -17 -6z"/>
<path d="M7690 6266 c0 -3 4 -14 9 -24 5 -9 20 -42 34 -72 14 -30 35 -65 46
-77 22 -23 37 -31 26 -14 -3 6 -7 36 -10 67 -2 31 -9 62 -16 68 -9 8 -10 2 -5
-24 4 -25 3 -31 -4 -20 -5 8 -10 11 -10 5 0 -5 -9 8 -19 30 -16 36 -51 77 -51
61z"/>
<path d="M7710 6138 c1 -7 12 -33 26 -58 26 -47 23 -20 -3 38 -16 34 -23 40
-23 20z"/>
<path d="M7711 6060 c0 -8 4 -22 9 -30 12 -18 12 -2 0 25 -6 13 -9 15 -9 5z"/>
<path d="M7780 6045 c1 -11 7 -33 16 -50 l14 -30 -5 39 c-5 42 -25 75 -25 41z"/>
<path d="M7876 5919 c4 -19 18 -56 32 -84 15 -27 25 -53 24 -57 -1 -4 8 -26
19 -50 l20 -43 -5 49 c-10 79 -48 179 -80 205 -14 12 -15 10 -10 -20z"/>
<path d="M7863 5842 c-9 -5 -7 -21 7 -61 10 -30 16 -61 13 -70 -4 -14 -3 -14
6 -1 5 8 12 12 14 10 8 -11 47 -101 47 -110 0 -5 5 -10 10 -10 6 0 10 4 10 10
0 9 -37 98 -78 190 -9 19 -15 38 -14 43 2 9 0 9 -15 -1z"/>
<path d="M7902 5670 c14 -22 24 -19 15 5 -4 8 -11 15 -17 15 -6 0 -6 -7 2 -20z"/>
<path d="M8060 5601 c0 -5 5 -13 10 -16 6 -3 10 -2 10 4 0 5 -4 13 -10 16 -5
3 -10 2 -10 -4z"/>
<path d="M7822 5500 c0 -14 2 -19 5 -12 2 6 2 18 0 25 -3 6 -5 1 -5 -13z"/>
<path d="M7812 5440 c0 -19 2 -27 5 -17 2 9 2 25 0 35 -3 9 -5 1 -5 -18z"/>
<path d="M7800 5365 c0 -28 15 -34 24 -9 10 25 7 34 -9 34 -9 0 -15 -9 -15
-25z"/>
<path d="M7830 5338 c0 -13 5 -30 10 -38 7 -11 10 -7 10 17 0 17 -4 35 -10 38
-6 3 -10 -4 -10 -17z"/>
<path d="M8060 5351 c0 -6 4 -13 10 -16 6 -3 7 1 4 9 -7 18 -14 21 -14 7z"/>
<path d="M7831 5244 c0 -11 3 -14 6 -6 3 7 2 16 -1 19 -3 4 -6 -2 -5 -13z"/>
<path d="M8062 5200 c0 -14 2 -19 5 -12 2 6 2 18 0 25 -3 6 -5 1 -5 -13z"/>
<path d="M7931 5094 c0 -11 3 -14 6 -6 3 7 2 16 -1 19 -3 4 -6 -2 -5 -13z"/>
<path d="M8125 5100 c3 -5 8 -10 11 -10 2 0 4 5 4 10 0 6 -5 10 -11 10 -5 0
-7 -4 -4 -10z"/>
<path d="M8071 5074 c0 -11 3 -14 6 -6 3 7 2 16 -1 19 -3 4 -6 -2 -5 -13z"/>
<path d="M8120 5056 c0 -8 5 -18 10 -21 6 -3 10 3 10 14 0 12 -4 21 -10 21 -5
0 -10 -6 -10 -14z"/>
<path d="M8046 4985 c-8 -21 4 -94 16 -101 5 -4 7 18 4 52 -6 63 -10 73 -20
49z"/>
<path d="M8040 4858 c0 -46 13 -118 20 -113 4 2 3 32 -2 66 -9 66 -18 90 -18
47z"/>
<path d="M8030 4502 c0 -34 4 -62 9 -62 9 0 3 109 -5 119 -2 2 -4 -23 -4 -57z"/>
<path d="M8132 4540 c0 -14 2 -19 5 -12 2 6 2 18 0 25 -3 6 -5 1 -5 -13z"/>
<path d="M8021 4364 c0 -11 3 -14 6 -6 3 7 2 16 -1 19 -3 4 -6 -2 -5 -13z"/>
<path d="M7962 4340 c0 -14 2 -19 5 -12 2 6 2 18 0 25 -3 6 -5 1 -5 -13z"/>
<path d="M7938 4244 c-3 -5 -15 -40 -28 -79 -12 -38 -26 -74 -31 -79 -5 -6 -9
-27 -9 -47 0 -20 -7 -53 -15 -72 -8 -20 -15 -47 -15 -59 1 -51 46 60 61 147 6
41 7 36 4 -30 l-5 -80 29 60 c27 58 51 152 51 203 0 14 -3 22 -7 19 -3 -4 -11
1 -18 10 -7 9 -14 12 -17 7z"/>
<path d="M7509 3109 c-24 -28 -50 -66 -57 -83 -16 -37 -9 -29 42 42 21 28 42
52 47 52 5 0 9 7 9 16 0 8 5 12 10 9 6 -3 10 -1 10 4 0 21 -17 10 -61 -40z"/>
<path d="M7338 2881 c-24 -24 -23 -33 4 -29 13 2 22 12 24 26 5 26 -5 27 -28
3z"/>
</g>
</svg>
